<svg id="Layer_1" data-name="Layer 1" xmlns="http://www.w3.org/2000/svg" width="729" height="317" viewBox="176 382 729 317"><defs><style>.cls-1{fill:#fff;}</style></defs><path class="cls-1" d="M426.13,554.68c-1,.64-2.06,1.17-3.1,1.75l-23.41,11.19-16.14,5.71h0a206.19,206.19,0,0,1-21.84,4.34c-13.37,1.24-26.7.11-40-.57-6.67-1.06-13.39-1.68-20.12-2.29-6.92-1.09-13.83-2.24-20.77-3.23-2.06-.29-4-1.49-6.55-.92a20.18,20.18,0,0,0,3.86,3.67l.57.52a52.68,52.68,0,0,0,13.93,9,6.87,6.87,0,0,0,2.85,1.53,85.27,85.27,0,0,0,15,5.65c2.39.65,4.65,1.82,7.2,1.82h0c6.35,2.14,13,2.88,19.57,3.74,17.78,2.33,36.36,2.4,53.51-3.36,15.82-5.36,27.45-15.72,35.73-30,1.27-1.63,4.81-11.87-.26-8.5"/><path class="cls-1" d="M459.92,449.93C457.22,536.74,284.91,562,200,530c58.92,60.78,315.39,41.76,259.9-80.06"/><path class="cls-1" d="M201.52,506.31a2.87,2.87,0,0,0,1.11,1.85.31.31,0,0,0,.16.33h0c10.36,15.54,30.12,21.31,47.5,23.28-.22-.69-.81-.72-1.31-.88h0l-11-6.79c-2.59-2.5-5.65-4.4-8-7.17-13.51-14.55-11.82-34.81-1-50.33,4.92-5.82,10-11.57,16.16-16.14,38.8-26.48,87.35-33,133.16-35.95-3.45-1.11-6.67-.87-9.88-.74h0a407.78,407.78,0,0,0-49.06,1.69c-13.64,1.31-27.34,2.93-40.7,6.17a165.23,165.23,0,0,0-29,8.86,93.36,93.36,0,0,0-18.48,9.18h0a61.93,61.93,0,0,0-13.52,10.19,53.4,53.4,0,0,0-13.37,17.31c-6.13,11.82-9.69,26.94-2.7,39.14"/><path class="cls-1" d="M363.9,519l-4.41,5.77c2.95-.78,5.51-1.39,7.81-2.8,10.25-3.41,22.75-13.94,16.7-25.76-6.33-12.66-22.13-14.56-34.84-15.51-33.92-2.53-69.5,7.94-93.54,32.78,26.7-12.68,55.35-24.45,85.56-21.17,13.42.73,31.6,11.37,22.72,26.69"/><path class="cls-1" d="M344.41,430h0c-26.77,3.09-52.9,12.73-74.76,28.45a131.38,131.38,0,0,0-19.39,16.2c14.66-3.72,31.05-11,46.72-14.69a310.18,310.18,0,0,1,50.21-9.47h0c14.58-1.15,29.41-.81,43.52,3.41,20.8,6.09,36.1,28.68,20.86,48.29A68.76,68.76,0,0,0,433,485.65h0C473.44,435,378.37,422.9,344.41,430"/><path class="cls-1" d="M328.23,621.74h0c-.5-.55-1.19-.42-1.81-.54-9.08-1.64-18.05-3.6-25.52-9.52-2-1.61-4-3.35-5.89-5.09-.88-.79-1.54-1.17-1.86.37-.92,4.43-1.08,8.85.5,13.16,3,8.07,9.48,11.86,17.26,13.86a69.57,69.57,0,0,0,22.88,1.78,65.83,65.83,0,0,0,29.63-9.42,27.6,27.6,0,0,0,8.62-5.85,83.49,83.49,0,0,1-15.38,2.64,114.75,114.75,0,0,1-28.43-1.39"/><path class="cls-1" d="M299.8,654.74h0c-4.43-.76-8.73-1.83-12.45-4.52a14.49,14.49,0,0,0-3.42-3.52l-.82,4.06c0,.37-.07.74-.11,1.1a3,3,0,0,0-.5,2.26c0,.32-.05.63-.08,1a3.17,3.17,0,0,0-.44,2.4,31.2,31.2,0,0,0-.53,10.19c.21,2.75.7,5.54,3,7.53,1.44,1.28,2.79,1.61,4.16-.25,1.2-1.63,2.64-3.07,4-4.59a39,39,0,0,0,5.7-6.14,26.22,26.22,0,0,0,4.3-4.57,1.57,1.57,0,0,0,1-1.63h0l1.23-1c1-.37,1.49-1.17,2.17-2.22H299.8"/><path class="cls-1" d="M513.34,484a55.82,55.82,0,0,0,24.51,6.1c10.15,0,15.52-4.21,15.52-10.59,0-6.09-4.64-9.57-16.39-13.63-16.24-5.81-27-14.8-27-29,0-16.68,14.08-29.3,37-29.3,11.17,0,19.14,2.18,25,4.93L567,430.16a45.69,45.69,0,0,0-20.31-4.65c-9.57,0-14.21,4.5-14.21,9.43,0,6.24,5.36,9,18.13,13.78,17.26,6.38,25.23,15.37,25.23,29.15,0,16.39-12.47,30.32-39.3,30.32-11.17,0-22.2-3.05-27.7-6.1Z"/><path class="cls-1" d="M611.68,465.69H612a91.22,91.22,0,0,1,5.08-8.56l14.35-21.32H658l-25.38,28.72,29,42.21H634.45l-17.26-29.16-5.51,7v22.2h-22v-103h22Z"/><path class="cls-1" d="M685.21,435.81l10.59,35c1.16,4.06,2.61,9.42,3.48,13.19h.58c.87-3.91,2-9.13,3-13.34l8.84-34.81h23.5l-16.53,46.7c-10.16,28.29-17,39.45-25,46.56a38.73,38.73,0,0,1-21.18,9.72l-4.78-18.57a35.17,35.17,0,0,0,9.57-3.77,25.33,25.33,0,0,0,9.14-8.84,6.74,6.74,0,0,0,1.16-3.19,9,9,0,0,0-.87-3.63l-26.11-65Z"/><path class="cls-1" d="M512.61,543.83a193,193,0,0,1,29.45-2c14.5,0,24.65,2.17,31.61,7.68,6,4.64,9.14,11.6,9.14,20.6,0,12.33-8.84,20.88-17.26,23.93v.43c6.82,2.76,10.59,9.14,13.06,18.13,3,11.17,5.94,23.94,7.83,27.7H563.81c-1.45-2.9-3.91-10.73-6.67-22.77-2.75-12.32-7-15.52-16.1-15.66h-6.52v38.43H512.61Zm21.91,42.06h8.7c11,0,17.55-5.51,17.55-14.07,0-8.85-6.1-13.49-16.25-13.49-5.36,0-8.41.29-10,.73Z"/><path class="cls-1" d="M658.23,623.16c0,6.67.29,13.2,1.16,17.11H639.53l-1.31-7.1h-.44c-4.64,5.66-11.89,8.7-20.3,8.7-14.36,0-22.92-10.44-22.92-21.75,0-18.42,16.54-27.13,41.63-27.13v-.87c0-3.91-2-9.28-12.91-9.28a39.9,39.9,0,0,0-19.58,5.37L599.64,574c4.93-2.75,14.65-6.38,27.56-6.38,23.64,0,31,13.92,31,30.75Zm-21.32-16.39c-11.6,0-20.59,2.76-20.59,11.17,0,5.65,3.77,8.41,8.7,8.41a12.18,12.18,0,0,0,11.46-8.12,15.78,15.78,0,0,0,.43-3.77Z"/><path class="cls-1" d="M744.53,537.3v81.8c0,8,.29,16.39.58,21.18H725.53l-.87-10.3h-.43c-4.36,7.83-13.06,11.89-22.19,11.89-16.83,0-30.32-14.36-30.32-36.4-.14-23.94,14.8-37.86,31.76-37.86,8.85,0,15.53,3.19,18.71,8h.3V537.3Zm-22,62.08a19.25,19.25,0,0,0-.3-4.07c-1.3-5.8-6.09-10.73-12.9-10.73-10.16,0-15.23,9-15.23,20.16,0,12,6,19.58,15.08,19.58a13.07,13.07,0,0,0,12.91-10.59,28.64,28.64,0,0,0,.44-5.07Z"/><path class="cls-1" d="M821.26,623.16c0,6.67.29,13.2,1.16,17.11H802.55l-1.31-7.1h-.43c-4.64,5.66-11.89,8.7-20.31,8.7-14.35,0-22.91-10.44-22.91-21.75,0-18.42,16.53-27.13,41.62-27.13v-.87c0-3.91-2-9.28-12.91-9.28a39.93,39.93,0,0,0-19.58,5.37L762.66,574c4.93-2.75,14.65-6.38,27.56-6.38,23.64,0,31,13.92,31,30.75Zm-21.32-16.39c-11.6,0-20.6,2.76-20.6,11.17,0,5.65,3.77,8.41,8.71,8.41a12.17,12.17,0,0,0,11.45-8.12,15.77,15.77,0,0,0,.44-3.77Z"/><path class="cls-1" d="M838.81,592.7c0-10.44-.14-17.26-.58-23.35h18.85l.87,13.06h.59c3.62-10.45,12.18-14.8,19.14-14.8a21.89,21.89,0,0,1,4.64.44v20.74a32.93,32.93,0,0,0-5.94-.58c-8.13,0-13.64,4.35-15.09,11.17a25.93,25.93,0,0,0-.43,4.93v36H838.81Z"/></svg>