<?xml version="1.0" encoding="utf-8"?>
<!-- Generator: Adobe Illustrator 24.1.1, SVG Export Plug-In . SVG Version: 6.00 Build 0)  -->
<svg version="1.1" id="Layer_1" xmlns="http://www.w3.org/2000/svg" xmlns:xlink="http://www.w3.org/1999/xlink" x="0px" y="0px"
	 viewBox="0 0 1080 1080" style="enable-background:new 0 0 1080 1080;" xml:space="preserve">
<style type="text/css">
	.st0{fill:#FCCF23;}
	.st1{clip-path:url(#SVGID_5_);fill:url(#SVGID_6_);}
	.st2{fill:#109BD5;}
	.st3{fill:#E7453A;}
	.st4{fill:#FFFFFF;}
	.st5{fill:#F9BB16;}
	.st6{clip-path:url(#SVGID_7_);fill:url(#SVGID_8_);}
	.st7{clip-path:url(#SVGID_9_);fill:url(#SVGID_10_);}
	.st8{clip-path:url(#SVGID_11_);fill:url(#SVGID_12_);}
</style>
<g>
	<path class="st0" d="M630.89,443.56c0,83.6-67.77,151.37-151.37,151.37c-83.61,0-151.38-67.77-151.38-151.37
		s67.77-151.37,151.38-151.37C563.12,292.19,630.89,359.96,630.89,443.56"/>
	<path class="st0" d="M479.43,229.87L479.43,229.87c-14.71,0-26.63-11.92-26.63-26.63v-92.78c0-14.71,11.92-26.63,26.63-26.63
		c14.71,0,26.63,11.92,26.63,26.63v92.78C506.06,217.95,494.14,229.87,479.43,229.87"/>
	<path class="st0" d="M479.61,803.28L479.61,803.28c-14.71,0-26.63-11.92-26.63-26.63v-92.78c0-14.71,11.92-26.63,26.63-26.63
		c14.71,0,26.63,11.92,26.63,26.63v92.78C506.24,791.36,494.32,803.28,479.61,803.28"/>
	<path class="st0" d="M630.56,292.39L630.56,292.39c-10.4-10.4-10.4-27.26,0-37.66l65.6-65.6c10.4-10.4,27.26-10.4,37.66,0
		s10.4,27.26,0,37.66l-65.6,65.6C657.82,302.79,640.95,302.79,630.56,292.39"/>
	<path class="st0" d="M225.22,697.98L225.22,697.98c-10.4-10.4-10.4-27.26,0-37.66l65.6-65.6c10.4-10.4,27.26-10.4,37.66,0
		c10.4,10.4,10.4,27.26,0,37.66l-65.6,65.6C252.48,708.38,235.62,708.38,225.22,697.98"/>
	<path class="st0" d="M693.21,443.47L693.21,443.47c0-14.71,11.92-26.63,26.63-26.63h92.78c14.71,0,26.63,11.92,26.63,26.63
		c0,14.71-11.92,26.63-26.63,26.63h-92.78C705.13,470.09,693.21,458.17,693.21,443.47"/>
	<path class="st0" d="M119.79,443.65L119.79,443.65c0-14.71,11.92-26.63,26.63-26.63h92.78c14.71,0,26.63,11.92,26.63,26.63
		c0,14.71-11.92,26.63-26.63,26.63h-92.78C131.72,470.27,119.79,458.35,119.79,443.65"/>
	<path class="st0" d="M630.68,594.59L630.68,594.59c10.4-10.4,27.26-10.4,37.66,0l65.6,65.6c10.4,10.4,10.4,27.26,0,37.66
		c-10.4,10.4-27.26,10.4-37.66,0l-65.6-65.6C620.28,621.85,620.28,604.99,630.68,594.59"/>
	<path class="st0" d="M225.09,189.26L225.09,189.26c10.4-10.4,27.26-10.4,37.66,0l65.6,65.6c10.4,10.4,10.4,27.26,0,37.66
		c-10.4,10.4-27.26,10.4-37.66,0l-65.6-65.6C214.69,216.52,214.69,199.65,225.09,189.26"/>
	<path class="st4" d="M958.67,632.59c-1.92,36.01-14.53,68.27-35.62,97.08c-30.16,41.23-70.42,67.26-120.52,77.66
		c-10.65,2.21-21.48,3.7-32.36,3.74c-117.5,0.05-234.96,0.67-352.41-0.29c-44.2-0.34-80.49-19.94-108.73-54.13
		c-16.01-19.41-26.03-41.56-30.54-66.2c-0.62-3.46-0.57-7.05-0.86-10.55c-2.97-5.94-0.87-12.32-1.39-18.46
		c2.88-3.78,0.81-8.15,1.39-12.22c0.05-2.01,0.09-4.02,0.14-6.04c1.11-10.5,4.46-20.47,7.63-30.49c1.53-3.59,3.06-7.14,4.6-10.74
		c0.53-1.01,1.05-2.01,1.53-3.06c2.54-4.03,5.03-8.11,7.53-12.18c3.45-6.95,8.82-12.52,13.76-18.32
		c18.94-21.86,42.24-36.77,70.18-44.29c7.05-4.36,15.82-2.16,22.92-6.09c3.12-4.84,0.87-10.21,1.49-15.29
		c0-21.1,6.33-40.85,14.23-59.97c5.46-13.28,12.18-26.13,20.95-37.73c8.63-12.56,18.84-23.78,30.49-33.61
		c9.73-8.97,20.28-16.83,32.07-22.87c9.49-6.19,19.6-10.93,30.54-13.76c8.63-4.5,17.93-6.42,27.47-7.62
		c18.03-5.37,36.48-5.66,54.94-3.6c4.5,0.53,9.63-1.34,13.8,2.07c9.11-0.05,17.74,2.2,25.94,6.09c10.93,2.2,21.33,5.7,30.54,12.22
		c13.24,5.32,24.83,13.09,35.14,22.92c11.99,8.34,21.34,19.32,30.5,30.54c4.89,6.76,9.54,13.66,14.71,20.14
		c3.88,4.89,10.12,3.74,15.39,4.17c23.45,1.97,45.4,9.06,66.59,18.79c1.05,0.48,1.77,1.78,2.58,2.64
		c27.33,14.14,51.15,32.36,68.61,58.11c4.46,6.37,10.17,11.98,12.27,19.8c3.4,4.7,7.57,8.97,7.67,15.29
		c0.53,1.01,1.01,2.01,1.53,3.02c2.01,5.08,4.08,10.17,6.13,15.25c5.23,11.7,7.05,24.16,9.01,36.67
		c2.07,11.27,1.63,22.68,1.59,34.09C960.06,627.79,960.83,630.53,958.67,632.59"/>
	<path class="st2" d="M678.23,994.05L678.23,994.05c-7.54-4.36-10.13-14-5.77-21.55l66.87-115.83c4.36-7.54,14.01-10.13,21.55-5.77
		c7.55,4.36,10.13,14,5.78,21.55l-66.87,115.83C695.42,995.83,685.77,998.41,678.23,994.05"/>
	<path class="st2" d="M387.04,994.05L387.04,994.05c-7.54-4.36-10.13-14-5.77-21.55l66.87-115.83c4.36-7.54,14.01-10.13,21.55-5.77
		c7.55,4.36,10.13,14,5.78,21.55l-66.87,115.83C404.23,995.83,394.58,998.41,387.04,994.05"/>
	<path class="st2" d="M534.34,994.05L534.34,994.05c-7.54-4.36-10.13-14-5.77-21.55l66.87-115.83c4.36-7.54,14.01-10.13,21.55-5.77
		c7.55,4.36,10.13,14,5.78,21.55l-66.87,115.83C551.54,995.83,541.88,998.41,534.34,994.05"/>
</g>
</svg>
