<?xml version="1.0" encoding="utf-8"?>
<!-- Generator: Adobe Illustrator 24.1.1, SVG Export Plug-In . SVG Version: 6.00 Build 0)  -->
<svg version="1.1" id="Layer_1" xmlns="http://www.w3.org/2000/svg" xmlns:xlink="http://www.w3.org/1999/xlink" x="0px" y="0px"
	 viewBox="0 0 1080 1080" style="enable-background:new 0 0 1080 1080;" xml:space="preserve">
<style type="text/css">
	.st0{fill:#FCCF23;}
	.st1{clip-path:url(#SVGID_5_);fill:url(#SVGID_6_);}
	.st2{fill:#109BD5;}
	.st3{fill:#E7453A;}
	.st4{fill:#FFFFFF;}
	.st5{fill:#F9BB16;}
	.st6{clip-path:url(#SVGID_7_);fill:url(#SVGID_8_);}
	.st7{clip-path:url(#SVGID_9_);fill:url(#SVGID_10_);}
	.st8{clip-path:url(#SVGID_11_);fill:url(#SVGID_12_);}
</style>
<g>
	<g>
		<defs>
			<path id="SVGID_2_" d="M470.08,128.93c-12.14,1.53-23.97,3.97-34.95,9.7c-13.91,3.6-26.79,9.64-38.86,17.51
				c-15.01,7.68-28.44,17.69-40.83,29.1c-14.83,12.5-27.81,26.78-38.8,42.76c-11.16,14.77-19.71,31.12-26.66,48.02
				c-10.06,24.35-18.12,49.48-18.12,76.33c-0.8,6.47,2.08,13.3-1.89,19.45c-9.03,5.01-20.19,2.2-29.16,7.76
				c-35.57,9.58-65.22,28.54-89.32,56.37c-6.29,7.37-13.12,14.45-17.5,23.29c-3.18,5.19-6.36,10.38-9.58,15.51
				c-0.62,1.33-1.29,2.62-1.96,3.91c-1.95,4.57-3.9,9.09-5.86,13.66c-4.03,12.75-8.3,25.44-9.71,38.8c-0.05,2.57-0.11,5.13-0.18,7.7
				c-0.73,5.18,1.89,10.72-1.77,15.55c0.68,7.82-2.01,15.92,1.77,23.49c0.36,4.46,0.31,9.03,1.1,13.42
				c5.73,31.37,18.48,59.54,38.86,84.27c35.94,43.5,82.12,68.44,138.38,68.87c149.47,1.23,298.94,0.42,448.47,0.37
				c13.85-0.06,27.64-1.96,41.18-4.76c63.76-13.25,115.01-46.37,153.38-98.85c26.85-36.66,42.89-77.73,45.33-123.54
				c2.75-2.63,1.77-6.1,1.83-9.21c0.07-14.53,0.61-29.05-2.01-43.39c-2.5-15.92-4.82-31.78-11.47-46.67
				c-2.63-6.47-5.25-12.94-7.81-19.41c-0.68-1.28-1.29-2.56-1.95-3.84c-0.13-8.05-5.43-13.49-9.77-19.46
				c-2.69-9.94-9.94-17.08-15.62-25.2c-22.2-32.76-52.52-55.93-87.31-73.94c-1.03-1.1-1.95-2.75-3.29-3.36
				c-26.97-12.39-54.91-21.41-84.74-23.91c-6.71-0.54-14.65,0.92-19.58-5.31c-6.6-8.24-12.51-17.02-18.74-25.63
				c-11.65-14.27-23.55-28.25-38.8-38.86c-13.12-12.51-27.88-22.39-44.72-29.16c-11.72-8.3-24.96-12.76-38.87-15.56
				c-10.44-4.94-21.41-7.82-33-7.76c-3.65-2.97-7.88-2.78-12.02-2.58c-1.89,0.09-3.76,0.18-5.55-0.04
				c-8.51-0.95-17.02-1.51-25.51-1.51C499.57,122.84,484.71,124.57,470.08,128.93"/>
		</defs>
		<clipPath id="SVGID_5_">
			<use xlink:href="#SVGID_2_"  style="overflow:visible;"/>
		</clipPath>
		
			<linearGradient id="SVGID_6_" gradientUnits="userSpaceOnUse" x1="30.962" y1="-1467.0824" x2="40.816" y2="-1467.0824" gradientTransform="matrix(0 63.2003 63.2003 0 93259.6484 -1833.9679)">
			<stop  offset="0" style="stop-color:#A0B1BA"/>
			<stop  offset="1" style="stop-color:#58707D"/>
		</linearGradient>
		<rect x="102.93" y="122.84" class="st1" width="873.23" height="622.77"/>
	</g>
	<path class="st3" d="M415.47,957.16c-4.89-3.97-5.14-5.07-2.23-10.84c26.18-52.14,52.36-104.27,78.54-156.41
		c0.76-1.51,1.51-3.02,2.66-5.37h-4.78c-22.59,0-45.17,0-67.77,0c-0.97,0-1.96,0.02-2.94,0c-6.44-0.17-8.82-4.3-5.54-9.86
		c10.47-17.75,21-35.45,31.51-53.17c26.77-45.14,53.6-90.26,80.25-135.48c2.49-4.22,5.37-5.95,10.3-5.91
		c26.88,0.2,53.76,0.09,80.64,0.09c0.25,0,0.49,0,0.74,0c8.23,0.01,10.5,3.78,6.49,10.86c-16.21,28.58-32.42,57.16-48.65,85.74
		c-5.2,9.17-10.41,18.33-15.59,27.52c-0.58,1.02-1.03,2.12-1.8,3.72c1.9,0.09,3.31,0.22,4.71,0.22c25.05,0.01,50.08,0.02,75.13-0.01
		c3.04,0,5.95,0,7.35,3.45c1.33,3.25-0.52,5.34-2.51,7.45c-73.15,78.13-146.29,156.28-219.45,234.41c-1.24,1.32-2.73,2.4-4.1,3.59
		H415.47z"/>
</g>
</svg>
