<?xml version="1.0" encoding="utf-8"?>
<!-- Generator: Adobe Illustrator 24.1.1, SVG Export Plug-In . SVG Version: 6.00 Build 0)  -->
<svg version="1.1" id="Layer_1" xmlns="http://www.w3.org/2000/svg" xmlns:xlink="http://www.w3.org/1999/xlink" x="0px" y="0px"
	 viewBox="0 0 1080 1080" style="enable-background:new 0 0 1080 1080;" xml:space="preserve">
<style type="text/css">
	.st0{fill:#FCCF23;}
	.st1{clip-path:url(#SVGID_5_);fill:url(#SVGID_6_);}
	.st2{fill:#109BD5;}
	.st3{fill:#E7453A;}
	.st4{fill:#FFFFFF;}
	.st5{fill:#F9BB16;}
	.st6{clip-path:url(#SVGID_7_);fill:url(#SVGID_8_);}
	.st7{clip-path:url(#SVGID_9_);fill:url(#SVGID_10_);}
	.st8{clip-path:url(#SVGID_11_);fill:url(#SVGID_12_);}
</style>
<g>
	<path class="st0" d="M600.21,450.12c0,81.29-65.89,147.18-147.18,147.18c-81.29,0-147.19-65.89-147.19-147.18
		s65.89-147.18,147.19-147.18C534.31,302.94,600.21,368.83,600.21,450.12"/>
	<path class="st0" d="M452.94,242.34L452.94,242.34c-14.3,0-25.89-11.59-25.89-25.89v-90.21c0-14.3,11.59-25.89,25.89-25.89
		s25.89,11.59,25.89,25.89v90.21C478.83,230.75,467.24,242.34,452.94,242.34"/>
	<path class="st0" d="M453.11,799.89L453.11,799.89c-14.3,0-25.89-11.59-25.89-25.89v-90.21c0-14.3,11.59-25.89,25.89-25.89
		c14.3,0,25.89,11.59,25.89,25.89v90.21C479,788.29,467.41,799.89,453.11,799.89"/>
	<path class="st0" d="M599.88,303.14L599.88,303.14c-10.11-10.11-10.11-26.51,0-36.62l63.79-63.79c10.11-10.11,26.51-10.11,36.62,0
		c10.11,10.11,10.11,26.51,0,36.62l-63.79,63.79C626.39,313.25,609.99,313.25,599.88,303.14"/>
	<path class="st0" d="M205.76,697.5L205.76,697.5c-10.11-10.11-10.11-26.51,0-36.62l63.79-63.79c10.11-10.11,26.51-10.11,36.62,0
		s10.11,26.51,0,36.62l-63.79,63.79C232.27,707.61,215.87,707.61,205.76,697.5"/>
	<path class="st0" d="M660.8,450.03L660.8,450.03c0-14.3,11.59-25.89,25.89-25.89h90.21c14.3,0,25.89,11.59,25.89,25.89
		c0,14.3-11.59,25.89-25.89,25.89h-90.21C672.39,475.92,660.8,464.33,660.8,450.03"/>
	<path class="st0" d="M103.26,450.2L103.26,450.2c0-14.3,11.59-25.89,25.89-25.89h90.21c14.3,0,25.89,11.59,25.89,25.89
		c0,14.3-11.59,25.89-25.89,25.89h-90.21C114.85,476.1,103.26,464.5,103.26,450.2"/>
	<path class="st0" d="M600,596.97L600,596.97c10.11-10.11,26.51-10.11,36.62,0l63.79,63.79c10.11,10.11,10.11,26.51,0,36.62
		s-26.51,10.11-36.62,0L600,633.59C589.89,623.48,589.89,607.08,600,596.97"/>
	<path class="st0" d="M205.64,202.86L205.64,202.86c10.11-10.11,26.51-10.11,36.62,0l63.79,63.79c10.11,10.11,10.11,26.51,0,36.62
		c-10.11,10.11-26.51,10.11-36.62,0l-63.79-63.79C195.53,229.36,195.53,212.97,205.64,202.86"/>
	<g>
		<defs>
			<path id="SVGID_4_" d="M590.69,323.13c-9.28,1.17-18.32,3.03-26.71,7.41c-10.63,2.75-20.46,7.36-29.7,13.37
				c-11.46,5.87-21.72,13.52-31.18,22.24c-11.33,9.55-21.26,20.46-29.65,32.67c-8.53,11.29-15.06,23.78-20.37,36.69
				c-7.7,18.6-13.85,37.81-13.85,58.32c-0.61,4.94,1.59,10.16-1.44,14.86c-6.91,3.83-15.44,1.68-22.29,5.93
				c-27.18,7.32-49.83,21.81-68.24,43.07c-4.8,5.63-10.02,11.04-13.38,17.8c-2.42,3.96-4.84,7.93-7.32,11.84
				c-0.47,1.02-0.98,2-1.49,2.99c-1.49,3.49-2.98,6.94-4.47,10.43c-3.08,9.74-6.35,19.44-7.42,29.65c-0.05,1.96-0.1,3.91-0.14,5.87
				c-0.56,3.96,1.45,8.2-1.35,11.88c0.51,5.97-1.54,12.17,1.35,17.95c0.29,3.41,0.24,6.9,0.84,10.26
				c4.38,23.96,14.12,45.49,29.69,64.38c27.46,33.23,62.74,52.29,105.72,52.62c114.2,0.94,228.41,0.33,342.66,0.29
				c10.58-0.04,21.11-1.5,31.46-3.64c48.71-10.12,87.87-35.42,117.19-75.52c20.51-28.01,32.77-59.38,34.64-94.39
				c2.1-2.01,1.35-4.66,1.4-7.03c0.04-11.1,0.46-22.2-1.54-33.15c-1.91-12.16-3.69-24.28-8.76-35.66c-2-4.94-4.01-9.88-5.97-14.83
				c-0.51-0.98-0.98-1.96-1.5-2.94c-0.09-6.15-4.14-10.3-7.45-14.86c-2.05-7.6-7.6-13.05-11.94-19.26
				c-16.96-25.03-40.13-42.74-66.71-56.49c-0.79-0.84-1.49-2.1-2.52-2.56c-20.6-9.47-41.95-16.37-64.74-18.28
				c-5.12-0.41-11.19,0.7-14.96-4.05c-5.04-6.3-9.55-13.01-14.31-19.57c-8.9-10.91-17.99-21.59-29.65-29.7
				c-10.02-9.56-21.3-17.11-34.17-22.29c-8.95-6.33-19.07-9.74-29.7-11.88c-7.97-3.78-16.36-5.97-25.21-5.93
				c-2.79-2.27-6.02-2.12-9.18-1.97c-1.44,0.07-2.87,0.14-4.24-0.03c-6.51-0.73-13.01-1.15-19.49-1.15
				C613.21,318.48,601.86,319.79,590.69,323.13"/>
		</defs>
		<clipPath id="SVGID_5_">
			<use xlink:href="#SVGID_4_"  style="overflow:visible;"/>
		</clipPath>
		
			<linearGradient id="SVGID_6_" gradientUnits="userSpaceOnUse" x1="16.449" y1="796.5413" x2="23.9778" y2="796.5413" gradientTransform="matrix(0 63.2003 63.2003 0 -49697.9219 -721.1059)">
			<stop  offset="0" style="stop-color:#A0B1BA"/>
			<stop  offset="1" style="stop-color:#58707D"/>
		</linearGradient>
		<rect x="310.16" y="318.48" class="st1" width="667.19" height="475.83"/>
	</g>
	<path class="st2" d="M695.97,977.6L695.97,977.6c-7.33-4.23-9.85-13.62-5.61-20.96l65.01-112.62c4.24-7.33,13.62-9.85,20.96-5.61
		c7.34,4.24,9.85,13.62,5.62,20.96l-65.02,112.62C712.7,979.32,703.31,981.83,695.97,977.6"/>
	<path class="st2" d="M412.84,977.6L412.84,977.6c-7.33-4.23-9.85-13.62-5.61-20.96l65.01-112.62c4.24-7.33,13.62-9.85,20.96-5.61
		c7.34,4.24,9.85,13.62,5.62,20.96L433.8,971.98C429.56,979.32,420.18,981.83,412.84,977.6"/>
	<path class="st3" d="M548.96,955.93c-3.74-3.03-3.93-3.87-1.71-8.28c20-39.84,40-79.67,60-119.51c0.58-1.15,1.15-2.31,2.03-4.1
		h-3.66c-17.26,0-34.51,0-51.78,0c-0.74,0-1.5,0.02-2.25,0c-4.92-0.13-6.74-3.29-4.24-7.53c8-13.56,16.04-27.09,24.08-40.63
		c20.45-34.49,40.95-68.96,61.31-103.51c1.9-3.23,4.1-4.54,7.87-4.51c20.54,0.15,41.07,0.07,61.61,0.07c0.19,0,0.38,0,0.56,0
		c6.29,0.01,8.02,2.89,4.96,8.3c-12.38,21.84-24.77,43.67-37.17,65.51c-3.97,7-7.95,14.01-11.92,21.02
		c-0.44,0.78-0.79,1.62-1.38,2.84c1.45,0.07,2.53,0.17,3.6,0.17c19.14,0.01,38.27,0.02,57.4-0.01c2.32,0,4.54,0,5.62,2.63
		c1.02,2.48-0.4,4.08-1.92,5.69c-55.89,59.7-111.77,119.41-167.67,179.1c-0.95,1.01-2.08,1.84-3.13,2.75H548.96z"/>
</g>
</svg>
