<?xml version="1.0" encoding="utf-8"?>
<!-- Generator: Adobe Illustrator 24.1.1, SVG Export Plug-In . SVG Version: 6.00 Build 0)  -->
<svg version="1.1" id="Layer_1" xmlns="http://www.w3.org/2000/svg" xmlns:xlink="http://www.w3.org/1999/xlink" x="0px" y="0px"
	 viewBox="0 0 1080 1080" style="enable-background:new 0 0 1080 1080;" xml:space="preserve">
<style type="text/css">
	.st0{fill:#FCCF23;}
	.st1{clip-path:url(#SVGID_5_);fill:url(#SVGID_6_);}
	.st2{fill:#109BD5;}
	.st3{fill:#E7453A;}
	.st4{fill:#FFFFFF;}
	.st5{fill:#F9BB16;}
	.st6{clip-path:url(#SVGID_7_);fill:url(#SVGID_8_);}
	.st7{clip-path:url(#SVGID_9_);fill:url(#SVGID_10_);}
	.st8{clip-path:url(#SVGID_11_);fill:url(#SVGID_12_);}
</style>
<g>
	<path class="st0" d="M646.24,596.31c0,6.93,3.97,11.8-4.96,11.8s-18.77,0.44-18.77-6.48c0-6.92,9.84-18.59,18.77-18.59
		S646.24,589.39,646.24,596.31"/>
	<path class="st0" d="M610.57,618.07c6.32,4.9,13.57,6.17,7.25,11.06c-6.32,4.89-12.86,10.6-19.18,5.7
		c-6.32-4.9-10.01-18.53-3.69-23.42S604.25,613.18,610.57,618.07"/>
	<path class="st0" d="M683.59,620.97c6.32,4.9,13.57,6.17,7.25,11.06c-6.32,4.89-12.86,10.6-19.18,5.7
		c-6.32-4.9-10.01-18.54-3.69-23.42C674.29,609.42,677.27,616.07,683.59,620.97"/>
	<path class="st0" d="M684.98,563.52c6.32,4.9,13.57,6.17,7.25,11.06c-6.32,4.89-12.86,10.6-19.18,5.7
		c-6.32-4.9-10.01-18.53-3.69-23.42C675.68,551.97,678.66,558.62,684.98,563.52"/>
	<path class="st0" d="M571.08,651.67c0,6.93,3.97,11.8-4.96,11.8s-18.77,0.44-18.77-6.48c0-6.92,9.84-18.59,18.77-18.59
		S571.08,644.75,571.08,651.67"/>
	<path class="st0" d="M643.99,647.12c0,6.93,3.97,11.8-4.96,11.8s-18.77,0.44-18.77-6.48c0-6.92,9.84-18.59,18.77-18.59
		S643.99,640.2,643.99,647.12"/>
	<path class="st0" d="M704.71,656.25c0,6.93,3.97,11.8-4.96,11.8s-18.77,0.44-18.77-6.48c0-6.92,9.84-18.59,18.77-18.59
		S704.71,649.32,704.71,656.25"/>
	<path class="st0" d="M537.34,675.84c7.23,4.06,14.66,4.43,9.41,10.04c-5.23,5.6-10.55,12.04-17.78,7.98
		c-7.23-4.06-13.65-17.08-8.42-22.69C525.8,665.57,530.11,671.78,537.34,675.84"/>
	<path class="st0" d="M580.92,714.01c-4.3,6.07-3.84,11.82-11.67,8.5c-7.84-3.33-16.74-6.61-12.45-12.68
		c4.3-6.07,20.16-12.64,28-9.3C592.63,703.85,585.22,707.94,580.92,714.01"/>
	<path class="st0" d="M619.28,730.78c3.35,6.42,9.39,9.78,1.11,12.38c-8.28,2.6-17.18,5.87-20.54-0.54
		c-3.35-6.42,0.11-20.09,8.39-22.69C616.53,717.32,615.93,724.36,619.28,730.78"/>
	<path class="st0" d="M658.89,760.99c3.35,6.42,9.39,9.78,1.11,12.38c-8.28,2.6-17.18,5.87-20.54-0.54
		c-3.35-6.42,0.11-20.09,8.39-22.69C656.13,747.54,655.53,754.57,658.89,760.99"/>
	<path class="st0" d="M640.92,701.31c8.23,2.7,15.56,1.77,12.08,8.14c-3.48,6.38-6.79,13.57-15,10.87
		c-8.23-2.7-18.26-14.27-14.78-20.65C626.69,693.31,632.69,698.62,640.92,701.31"/>
	<path class="st0" d="M686.48,731.22c8.23,2.7,15.56,1.77,12.08,8.14c-3.48,6.38-6.79,13.57-15,10.87
		c-8.23-2.7-18.26-14.27-14.78-20.65C672.25,723.22,678.25,728.52,686.48,731.22"/>
	<path class="st0" d="M613.38,682.46c-5.73,5.31-6.73,11.02-13.58,6.58c-6.85-4.44-14.77-8.98-9.03-14.3
		c5.73-5.3,22.93-9.36,29.79-4.93C627.41,674.25,619.11,677.15,613.38,682.46"/>
	<path class="st0" d="M679.5,683.31c0,6.93,3.97,11.8-4.96,11.8c-8.93,0-18.77,0.44-18.77-6.48c0-6.92,9.84-18.59,18.77-18.59
		C683.47,670.05,679.5,676.39,679.5,683.31"/>
	<path class="st0" d="M717.02,712.28c0,6.93,3.97,11.8-4.96,11.8c-8.93,0-18.77,0.44-18.77-6.48c0-6.92,9.84-18.59,18.77-18.59
		C720.99,699.02,717.02,705.36,717.02,712.28"/>
	<path class="st0" d="M783.7,579.99c0,6.93,3.97,11.8-4.96,11.8s-18.77,0.44-18.77-6.48c0-6.92,9.84-18.59,18.77-18.59
		S783.7,573.06,783.7,579.99"/>
	<path class="st0" d="M730.86,593.79c6.32,4.9,13.57,6.17,7.25,11.06c-6.32,4.89-12.86,10.6-19.18,5.7
		c-6.32-4.9-10.01-18.54-3.69-23.42C721.55,582.24,724.54,588.9,730.86,593.79"/>
	<path class="st0" d="M781.45,630.8c0,6.93,3.97,11.8-4.96,11.8c-8.93,0-18.77,0.44-18.77-6.48c0-6.92,9.84-18.59,18.77-18.59
		C785.42,617.53,781.45,623.87,781.45,630.8"/>
	<path class="st0" d="M842.17,639.92c0,6.93,3.96,11.8-4.97,11.8c-8.93,0-18.77,0.44-18.77-6.48c0-6.92,9.84-18.59,18.77-18.59
		C846.13,626.66,842.17,633,842.17,639.92"/>
	<path class="st0" d="M756.74,714.45c3.35,6.42,9.39,9.78,1.11,12.38c-8.28,2.6-17.18,5.87-20.54-0.54
		c-3.35-6.42,0.11-20.09,8.39-22.69C753.99,701,753.39,708.03,756.74,714.45"/>
	<path class="st0" d="M796.35,744.66c3.35,6.42,9.39,9.78,1.11,12.38c-8.28,2.6-17.18,5.87-20.54-0.54
		c-3.35-6.42,0.11-20.09,8.39-22.69C793.59,731.21,793,738.24,796.35,744.66"/>
	<path class="st0" d="M778.38,684.99c8.23,2.7,15.56,1.77,12.08,8.14c-3.48,6.38-6.79,13.57-15,10.87
		c-8.23-2.7-18.26-14.27-14.78-20.65C764.15,676.99,770.15,682.29,778.38,684.99"/>
	<path class="st0" d="M823.94,714.89c8.23,2.7,15.56,1.77,12.08,8.14c-3.47,6.38-6.79,13.57-15,10.87
		c-8.23-2.7-18.26-14.27-14.78-20.65C809.71,706.89,815.71,712.19,823.94,714.89"/>
	<path class="st0" d="M750.84,666.14c-5.73,5.31-6.73,11.02-13.58,6.58c-6.85-4.44-14.77-8.98-9.03-14.3
		c5.73-5.3,22.93-9.36,29.79-4.93C764.87,657.93,756.57,660.82,750.84,666.14"/>
	<path class="st0" d="M816.96,666.99c0,6.93,3.97,11.8-4.97,11.8c-8.93,0-18.77,0.44-18.77-6.48c0-6.92,9.84-18.59,18.77-18.59
		C820.93,653.72,816.96,660.06,816.96,666.99"/>
	<path class="st0" d="M854.48,695.96c0,6.93,3.96,11.8-4.97,11.8c-8.93,0-18.77,0.44-18.77-6.48c0-6.92,9.84-18.59,18.77-18.59
		C858.44,682.7,854.48,689.03,854.48,695.96"/>
	<path class="st0" d="M506.76,712.28c0,6.93,3.97,11.8-4.96,11.8s-18.77,0.44-18.77-6.48c0-6.92,9.84-18.59,18.77-18.59
		S506.76,705.36,506.76,712.28"/>
	<path class="st0" d="M544.52,737.96c3.37,6.41,9.43,9.76,1.15,12.38c-8.27,2.62-17.15,5.91-20.54-0.5
		c-3.37-6.41,0.04-20.09,8.31-22.7S541.15,731.55,544.52,737.96"/>
	<path class="st0" d="M588.66,763.8c0,6.93,3.97,11.8-4.96,11.8c-8.93,0-18.77,0.44-18.77-6.48c0-6.92,9.84-18.59,18.77-18.59
		C592.63,750.54,588.66,756.87,588.66,763.8"/>
	<path class="st0" d="M538.62,774.08c3.35,6.42,9.39,9.78,1.11,12.38c-8.28,2.6-17.18,5.87-20.54-0.54
		c-3.35-6.42,0.11-20.09,8.39-22.69C535.86,760.63,535.27,767.66,538.62,774.08"/>
	<path class="st0" d="M587.04,814.59c3.35,6.42,9.39,9.78,1.11,12.38c-8.28,2.6-17.18,5.87-20.54-0.54
		c-3.35-6.42,0.11-20.09,8.39-22.69C584.28,801.14,583.69,808.17,587.04,814.59"/>
	<path class="st0" d="M640.92,809.87c8.23,2.7,15.56,1.77,12.08,8.14c-3.48,6.38-6.79,13.57-15,10.87
		c-8.23-2.7-18.26-14.27-14.78-20.65C626.69,801.87,632.69,807.17,640.92,809.87"/>
	<path class="st0" d="M811.64,604.96c8.23,2.7,15.56,1.77,12.08,8.14c-3.47,6.38-6.79,13.57-15,10.87
		c-8.23-2.7-18.26-14.27-14.78-20.65C797.41,596.96,803.41,602.26,811.64,604.96"/>
	<path class="st0" d="M736.31,552.36c8.23,2.7,15.56,1.77,12.08,8.14c-3.48,6.38-6.79,13.57-15,10.87
		c-8.23-2.7-18.26-14.27-14.78-20.65C722.08,544.36,728.08,549.66,736.31,552.36"/>
	<path class="st0" d="M715.68,787.96c3.35,6.42,9.39,9.78,1.11,12.38c-8.28,2.6-17.18,5.87-20.54-0.54
		c-3.35-6.42,0.11-20.09,8.39-22.69C712.93,774.51,712.33,781.55,715.68,787.96"/>
	<path class="st0" d="M743.28,758.19c8.23,2.7,15.56,1.77,12.08,8.14c-3.48,6.38-6.79,13.57-15,10.87
		c-8.23-2.7-18.26-14.27-14.78-20.65C729.05,750.19,735.05,755.5,743.28,758.19"/>
	<path class="st0" d="M927.09,576.16c0,6.93,3.97,11.8-4.97,11.8c-8.93,0-18.77,0.44-18.77-6.48c0-6.92,9.84-18.59,18.77-18.59
		C931.06,562.9,927.09,569.24,927.09,576.16"/>
	<path class="st0" d="M874.25,589.97c6.32,4.9,13.57,6.17,7.25,11.06c-6.32,4.89-12.86,10.6-19.18,5.7
		c-6.32-4.9-10.01-18.53-3.69-23.42C864.95,578.42,867.93,585.07,874.25,589.97"/>
	<path class="st0" d="M924.85,626.97c0,6.93,3.96,11.8-4.97,11.8c-8.93,0-18.77,0.44-18.77-6.48c0-6.92,9.84-18.59,18.77-18.59
		C928.81,613.71,924.85,620.05,924.85,626.97"/>
	<path class="st0" d="M985.56,636.1c0,6.93,3.96,11.8-4.97,11.8c-8.93,0-18.77,0.44-18.77-6.48c0-6.92,9.84-18.59,18.77-18.59
		C989.52,622.83,985.56,629.17,985.56,636.1"/>
	<path class="st0" d="M900.14,710.62c3.35,6.42,9.39,9.78,1.11,12.38c-8.28,2.6-17.18,5.87-20.54-0.54
		c-3.35-6.42,0.11-20.09,8.39-22.69C897.38,697.17,896.78,704.21,900.14,710.62"/>
	<path class="st0" d="M939.74,740.84c3.35,6.42,9.39,9.78,1.11,12.38c-8.28,2.6-17.18,5.87-20.54-0.54
		c-3.35-6.42,0.11-20.09,8.39-22.69C936.98,727.38,936.39,734.42,939.74,740.84"/>
	<path class="st0" d="M921.77,681.16c8.23,2.7,15.56,1.77,12.08,8.14c-3.47,6.38-6.79,13.57-15,10.87
		c-8.23-2.7-18.26-14.27-14.78-20.65C907.54,673.16,913.54,678.46,921.77,681.16"/>
	<path class="st0" d="M967.34,711.06c8.23,2.7,15.56,1.77,12.08,8.14c-3.47,6.38-6.79,13.57-15,10.87
		c-8.23-2.7-18.26-14.27-14.78-20.65C953.11,703.06,959.11,708.37,967.34,711.06"/>
	<path class="st0" d="M894.23,662.31c-5.73,5.31-6.73,11.02-13.58,6.58c-6.85-4.44-14.77-8.98-9.03-14.3
		c5.73-5.3,22.93-9.36,29.79-4.93C908.26,654.1,899.96,657,894.23,662.31"/>
	<path class="st0" d="M960.35,663.16c0,6.93,3.97,11.8-4.97,11.8c-8.93,0-18.77,0.44-18.77-6.48c0-6.92,9.84-18.59,18.77-18.59
		C964.32,649.9,960.35,656.24,960.35,663.16"/>
	<path class="st0" d="M997.87,692.13c0,6.93,3.96,11.8-4.97,11.8c-8.93,0-18.77,0.44-18.77-6.48c0-6.92,9.84-18.59,18.77-18.59
		C1001.83,678.87,997.87,685.21,997.87,692.13"/>
	<path class="st0" d="M955.03,601.13c8.23,2.7,15.56,1.77,12.08,8.14c-3.47,6.38-6.79,13.57-15,10.87
		c-8.23-2.7-18.26-14.27-14.78-20.65C940.8,593.13,946.8,598.43,955.03,601.13"/>
	<path class="st0" d="M879.7,548.53c8.23,2.7,15.56,1.77,12.08,8.14c-3.47,6.38-6.79,13.57-15,10.87
		c-8.23-2.7-18.26-14.27-14.78-20.65C865.47,540.53,871.47,545.84,879.7,548.53"/>
	<path class="st0" d="M827.33,566.3c8.23,2.7,15.56,1.77,12.08,8.14c-3.48,6.38-6.79,13.57-15,10.87
		c-8.23-2.7-18.26-14.27-14.78-20.65C813.1,558.3,819.1,563.6,827.33,566.3"/>
	<path class="st0" d="M886.67,754.37c8.23,2.7,15.56,1.77,12.08,8.14c-3.48,6.38-6.79,13.57-15,10.87
		c-8.23-2.7-18.26-14.27-14.78-20.65C872.44,746.37,878.44,751.67,886.67,754.37"/>
	<path class="st0" d="M837.67,758.19c8.23,2.7,15.56,1.77,12.08,8.14c-3.48,6.38-6.79,13.57-15,10.87
		c-8.23-2.7-18.26-14.27-14.78-20.65C823.44,750.19,829.44,755.5,837.67,758.19"/>
	<path class="st0" d="M484.96,776.33c0,6.93,3.97,11.8-4.96,11.8c-8.93,0-18.77,0.44-18.77-6.48c0-6.92,9.84-18.59,18.77-18.59
		C488.93,763.07,484.96,769.4,484.96,776.33"/>
	<path class="st0" d="M786.58,407.76l84.37-84.37c10.4-10.4,12.61-25.77,6.84-38.41L748.17,414.6
		C760.81,420.37,776.18,418.16,786.58,407.76"/>
	<path class="st0" d="M263.33,931.34l88.27-88.27c10.09-10.09,11.76-25.26,5.3-37.19L226.14,936.64
		C238.07,943.1,253.24,941.43,263.33,931.34"/>
	<path class="st0" d="M543.9,407.49c-107.52,0-194.67,87.16-194.67,194.67c0,58.02,25.51,109.95,65.77,145.61l274.52-274.52
		C653.84,433,601.91,407.49,543.9,407.49"/>
	<path class="st0" d="M543.78,327.35c18.91,0,34.25-15.33,34.25-34.25V173.78c0-18.91-15.33-34.25-34.25-34.25
		c-18.91,0-34.25,15.33-34.25,34.25V293.1C509.53,312.02,524.87,327.35,543.78,327.35"/>
	<path class="st0" d="M822.51,274.95l-84.37,84.37c-13.37,13.37-13.37,35.06,0,48.43c2.98,2.97,6.41,5.18,10.03,6.84l129.62-129.61
		c-1.65-3.62-3.87-7.05-6.85-10.03C857.58,261.58,835.89,261.58,822.51,274.95"/>
	<path class="st0" d="M347.7,794.63c-12.3-12.3-32.24-12.3-44.53,0L218.79,879c-14.45,14.45-14.45,37.88,0,52.34
		c2.21,2.21,4.73,3.88,7.34,5.3L356.9,805.87c-1.42-2.62-3.09-5.13-5.3-7.34L347.7,794.63z"/>
	<path class="st0" d="M234.83,568.04H115.51c-18.92,0-34.26,15.33-34.26,34.25c0,18.91,15.33,34.25,34.26,34.25l119.32,0.01
		c18.91,0,34.25-15.34,34.25-34.26C269.07,583.37,253.74,568.04,234.83,568.04"/>
	<path class="st0" d="M349.49,359.49l-84.37-84.37c-13.37-13.37-35.06-13.37-48.43,0c-13.37,13.37-13.37,35.06,0,48.43l84.37,84.37
		c13.37,13.37,35.06,13.37,48.43,0C362.86,394.55,362.86,372.86,349.49,359.49"/>
</g>
</svg>
