<?xml version="1.0" encoding="utf-8"?>
<!-- Generator: Adobe Illustrator 24.1.1, SVG Export Plug-In . SVG Version: 6.00 Build 0)  -->
<svg version="1.1" id="Layer_1" xmlns="http://www.w3.org/2000/svg" xmlns:xlink="http://www.w3.org/1999/xlink" x="0px" y="0px"
	 viewBox="0 0 1080 1080" style="enable-background:new 0 0 1080 1080;" xml:space="preserve">
<style type="text/css">
	.st0{fill:#FCCF23;}
	.st1{clip-path:url(#SVGID_5_);fill:url(#SVGID_6_);}
	.st2{fill:#109BD5;}
	.st3{fill:#E7453A;}
	.st4{fill:#FFFFFF;}
	.st5{fill:#F9BB16;}
	.st6{clip-path:url(#SVGID_7_);fill:url(#SVGID_8_);}
	.st7{clip-path:url(#SVGID_9_);fill:url(#SVGID_10_);}
	.st8{clip-path:url(#SVGID_11_);fill:url(#SVGID_12_);}
</style>
<g>
	<g>
		<defs>
			<path id="SVGID_3_" d="M481.72,184.42c-10.13,1.27-19.98,3.31-29.14,8.08c-11.6,3-22.32,8.03-32.39,14.6
				c-12.51,6.41-23.7,14.75-34.02,24.25c-12.36,10.43-23.19,22.33-32.34,35.66c-9.31,12.3-16.43,25.93-22.22,40.02
				c-8.4,20.29-15.11,41.24-15.11,63.62c-0.66,5.38,1.73,11.09-1.57,16.22c-7.53,4.17-16.84,1.83-24.32,6.45
				c-29.65,7.98-54.36,23.81-74.45,47c-5.24,6.15-10.93,12.05-14.6,19.42c-2.64,4.32-5.28,8.64-7.98,12.92
				c-0.52,1.12-1.07,2.18-1.62,3.25c-1.63,3.82-3.26,7.57-4.88,11.4c-3.36,10.63-6.93,21.21-8.09,32.34
				c-0.05,2.13-0.1,4.27-0.16,6.4c-0.6,4.33,1.58,8.95-1.47,12.97c0.56,6.51-1.68,13.28,1.47,19.58c0.31,3.72,0.26,7.53,0.92,11.19
				c4.78,26.14,15.41,49.63,32.39,70.22c29.96,36.26,68.45,57.06,115.34,57.42c124.59,1.02,249.18,0.35,373.82,0.3
				c11.55-0.06,23.04-1.62,34.32-3.97c53.14-11.03,95.87-38.64,127.85-82.38c22.39-30.57,35.75-64.79,37.79-102.98
				c2.29-2.18,1.48-5.08,1.53-7.68c0.05-12.1,0.5-24.2-1.68-36.16c-2.08-13.27-4.02-26.49-9.56-38.9
				c-2.18-5.39-4.37-10.78-6.5-16.17c-0.57-1.07-1.07-2.13-1.63-3.2c-0.11-6.72-4.53-11.23-8.14-16.22
				c-2.24-8.29-8.29-14.24-13.02-21c-18.51-27.31-43.78-46.64-72.77-61.64c-0.86-0.91-1.63-2.29-2.74-2.8
				c-22.48-10.32-45.77-17.84-70.64-19.93c-5.59-0.46-12.2,0.77-16.32-4.42c-5.5-6.86-10.42-14.19-15.62-21.36
				c-9.71-11.9-19.63-23.54-32.34-32.39c-10.93-10.42-23.23-18.67-37.27-24.31c-9.77-6.92-20.8-10.63-32.39-12.97
				c-8.7-4.11-17.86-6.51-27.52-6.45c-3.04-2.49-6.56-2.32-10.02-2.16c-1.58,0.07-3.13,0.15-4.63-0.03
				c-7.1-0.79-14.2-1.26-21.27-1.26C506.28,179.35,493.91,180.78,481.72,184.42"/>
		</defs>
		<clipPath id="SVGID_5_">
			<use xlink:href="#SVGID_3_"  style="overflow:visible;"/>
		</clipPath>
		
			<linearGradient id="SVGID_6_" gradientUnits="userSpaceOnUse" x1="-2228.094" y1="-1436.0532" x2="-2219.8804" y2="-1436.0532" gradientTransform="matrix(0 63.2003 63.2003 0 91298.6719 140995.6406)">
			<stop  offset="0" style="stop-color:#A0B1BA"/>
			<stop  offset="1" style="stop-color:#58707D"/>
		</linearGradient>
		<rect x="175.68" y="179.35" class="st1" width="727.87" height="519.1"/>
	</g>
	<path class="st2" d="M630.21,898.41L630.21,898.41c-8-4.62-10.75-14.85-6.12-22.86l70.94-122.86c4.62-8,14.85-10.74,22.85-6.12
		c8.01,4.62,10.75,14.85,6.13,22.86l-70.94,122.86C648.45,900.29,638.21,903.03,630.21,898.41"/>
	<path class="st2" d="M321.33,898.41L321.33,898.41c-8-4.62-10.75-14.85-6.12-22.86l70.93-122.86c4.63-8,14.86-10.74,22.86-6.12
		c8.01,4.62,10.75,14.85,6.13,22.86l-70.94,122.86C339.57,900.29,329.33,903.03,321.33,898.41"/>
	<path class="st2" d="M477.58,898.41L477.58,898.41c-8-4.62-10.75-14.85-6.12-22.86l70.94-122.86c4.62-8,14.85-10.74,22.85-6.12
		c8.01,4.62,10.75,14.85,6.13,22.86l-70.94,122.86C495.83,900.29,485.58,903.03,477.58,898.41"/>
</g>
</svg>
