<?xml version="1.0" encoding="utf-8"?>
<!-- Generator: Adobe Illustrator 24.1.1, SVG Export Plug-In . SVG Version: 6.00 Build 0)  -->
<svg version="1.1" id="Layer_1" xmlns="http://www.w3.org/2000/svg" xmlns:xlink="http://www.w3.org/1999/xlink" x="0px" y="0px"
	 viewBox="0 0 1080 1080" style="enable-background:new 0 0 1080 1080;" xml:space="preserve">
<style type="text/css">
	.st0{fill:#FCCF23;}
	.st1{clip-path:url(#SVGID_5_);fill:url(#SVGID_6_);}
	.st2{fill:#109BD5;}
	.st3{fill:#E7453A;}
	.st4{fill:#FFFFFF;}
	.st5{fill:#F9BB16;}
	.st6{clip-path:url(#SVGID_7_);fill:url(#SVGID_8_);}
	.st7{clip-path:url(#SVGID_9_);fill:url(#SVGID_10_);}
	.st8{clip-path:url(#SVGID_11_);fill:url(#SVGID_12_);}
</style>
<g>
	<path class="st5" d="M954.98,438.03c-2.34-4.42-6.36-5.62-11.11-5.09c-8.04,0.84-16.1,1.62-24.17,2.44c-0.65,0-1.27,0-1.92,0.03
		c-0.89,0.1-1.8,0.15-2.67,0.23c0.78-0.15,1.6-0.23,2.48-0.23c-3.35,0-6.72-0.03-10.06-0.03c-1.87-0.05-3.75-0.08-5.62-0.13
		c-0.87-0.05-1.8-0.1-2.67-0.15h-0.05c-2.94-1.1-6.08-0.79-9.14-0.89c-2.85-1.08-5.74-1.35-8.74-0.7c-1.27-1-2.67-1.65-4.34-1.27
		c-1.07-1.05-2.42-0.88-3.72-0.85c-1.13-0.95-2.48-0.93-3.83-0.95c-1.12-0.97-2.49-0.87-3.84-0.89c-2.07-1.12-4.32-1.7-6.67-1.85
		c-2.24-1.23-4.59-2.1-7.19-2.05c-2.29-0.9-4.57-1.83-6.87-2.75c-2.64-1.65-5.59-2.62-8.56-3.57c-3.36-1.57-6.76-3.14-10.13-4.74
		c-4.05-2.24-8.09-4.52-12.14-6.78c-1.62-1.4-3.27-2.67-5.56-2.6c-0.61-0.65-1.18-1.3-1.75-1.95c-1.27-1.9-3.57-2.25-5.29-3.52
		c-0.13-0.75-0.65-1-1.32-1.1c-1.02-1.26-2.17-2.33-3.77-2.82c-0.98-1.22-2.12-2.25-3.62-2.87c-1.67-1.77-3.41-3.5-5.61-4.64
		c-1.68-1.52-3.32-3.04-5-4.57c-1.59-1.92-3.04-3.97-5.59-4.8c-1.03-1.17-2.05-2.37-3.09-3.57c-0.33-1.4-1.35-2.17-2.48-2.92
		c-0.87-0.94-1.72-1.9-2.6-2.87c-0.7-1.5-1.67-2.75-3.07-3.65c-1.35-2.05-2.62-4.12-4.54-5.69c-1.4-2.3-2.77-4.64-4.77-6.52
		c-0.93-2.61-3.22-4.29-4.71-6.51c-6.35-11.98-12.9-23.89-17.83-36.58c0,0-0.01,0.01-0.01,0.02c0-0.01,0-0.02,0-0.02
		c-0.45-2.77-1.47-5.37-2.62-7.91c-0.05-0.15-0.13-0.33-0.2-0.48c-0.15-2-0.7-3.89-1.69-5.64c-1.55-2.3-0.38-5.29-1.97-7.59
		c0-1.59-0.15-3.14-1.03-4.54c-0.3-1.54-0.62-3.12-0.92-4.67c-0.05-1.67,0.19-3.37-0.85-4.86c-0.15-2.22,0.2-4.55-0.95-6.62
		c-0.12-3.1,0.25-6.22-0.87-9.21c-0.1-6.19-0.2-12.41-0.33-18.6v-0.98c0.05-2.17,0.1-4.37,0.15-6.54c0.05-0.93,0.1-1.85,0.15-2.75
		c-0.03,0-0.05,0.03-0.08,0.03c0.1-0.15,0.18-0.29,0.23-0.45c0.67-1.35,0.52-2.82,0.45-4.27c0.05-0.65,0.08-1.3,0.1-1.92
		c0.6-4.07,1.2-8.12,1.8-12.18c0.83-2.43-0.1-5.15,1.32-7.44c0.9-1.15,0.85-2.47,0.72-3.79c0.88-3.13,1.77-6.25,2.67-9.36
		c0.75-2.49,1.5-4.97,2.25-7.47c1.1-2.42,2.34-4.8,2.47-7.52c0.47-1.22,0.92-2.42,1.4-3.62c1.22-1.03,1.74-2.3,1.64-3.87
		c0.72-1.18,1.92-2.12,1.58-3.75c1.12-0.99,1.27-2.32,1.27-3.69c2.44-1.1,2.77-3.5,3.47-5.66c-0.13-1.65,1.69-2.3,1.92-3.75
		c0.14-0.24,0.19-0.47,0.17-0.75c2.1-2.57,3.9-5.32,4.75-8.56c1.15-0.57,2-1.37,2.02-2.77c0.6-0.62,1.22-1.25,1.85-1.87
		c0.46-0.67,0.93-1.32,1.37-1.97c0.13-0.52,0.23-1.05,0.35-1.57c0.97-1,2.49-1.45,2.85-3.03c1.95-2.49,3.87-4.96,5.79-7.46
		c3.67-4.42,4.26-8.29,1.77-12.34c-2.65-4.26-6.67-5.32-11.36-4.47c-34.38,6.09-65.54,19.47-93.12,40.92
		c-10.46,8.12-20.5,16.68-28.61,27.26c-0.65,1.95-2.81,2.12-4.05,3.62c-15.08,18.6-27.38,38.8-35.6,61.37
		c-3.97,10.83-7.96,21.64-9.24,33.22c-4.24,17.73-5.32,35.73-4.16,53.85c0.79,12.88,2.14,25.74,6.03,38.15
		c-0.03,4.27,1.68,8.14,2.92,12.06c11.96,37.42,32.13,69.56,61.69,95.62c1.35,2.43,3.89,3.55,5.92,5.15
		c47.58,37.92,101.61,53.97,162.03,46.26c54.33-6.94,98.78-32.61,134.27-74.1C956.25,446.44,957.32,442.42,954.98,438.03"/>
	<path class="st5" d="M759.76,292.93c-0.07,2.28-0.52,4.61,0.68,6.77c0.05-0.7,0.1-1.4,0.16-2.1
		C760.29,296.05,761.09,294.3,759.76,292.93"/>
	<path class="st4" d="M867.46,576.53c-2.09,39.22-15.83,74.37-38.8,105.76c-32.85,44.91-76.72,73.27-131.3,84.6
		c-11.6,2.41-23.4,4.03-35.25,4.08c-128,0.05-255.97,0.73-383.92-0.31c-48.15-0.37-87.68-21.73-118.45-58.97
		c-17.45-21.15-28.36-45.28-33.27-72.12c-0.67-3.77-0.62-7.68-0.94-11.5c-3.24-6.47-0.94-13.42-1.52-20.11
		c3.14-4.12,0.88-8.87,1.52-13.32c0.05-2.19,0.1-4.38,0.15-6.58c1.21-11.44,4.86-22.3,8.31-33.21c1.67-3.91,3.34-7.78,5.01-11.7
		c0.57-1.1,1.15-2.19,1.67-3.34c2.76-4.39,5.48-8.83,8.2-13.27c3.76-7.58,9.61-13.64,14.99-19.96
		c20.63-23.81,46.02-40.06,76.46-48.25c7.68-4.75,17.24-2.35,24.96-6.63c3.4-5.28,0.94-11.12,1.63-16.66
		c0-22.98,6.89-44.5,15.51-65.34c5.95-14.46,13.27-28.46,22.82-41.09c9.4-13.69,20.52-25.91,33.22-36.61
		c10.6-9.77,22.09-18.33,34.94-24.91c10.34-6.74,21.36-11.91,33.26-14.99c9.41-4.91,19.54-7,29.93-8.3
		c19.64-5.85,39.75-6.16,59.86-3.92c4.91,0.57,10.49-1.46,15.04,2.25c9.93-0.06,19.33,2.4,28.26,6.63
		c11.91,2.4,23.24,6.21,33.26,13.32c14.42,5.8,27.05,14.26,38.28,24.96c13.06,9.09,23.24,21.04,33.22,33.27
		c5.33,7.37,10.39,14.88,16.03,21.94c4.23,5.33,11.02,4.07,16.76,4.54c25.55,2.14,49.46,9.87,72.55,20.47
		c1.15,0.52,1.93,1.94,2.81,2.87c29.78,15.41,55.73,35.25,74.74,63.3c4.85,6.94,11.07,13.05,13.37,21.57
		c3.71,5.12,8.25,9.77,8.36,16.66c0.57,1.1,1.1,2.19,1.67,3.29c2.19,5.54,4.44,11.07,6.68,16.61c5.7,12.74,7.68,26.32,9.82,39.95
		c2.25,12.28,1.78,24.7,1.73,37.13C868.98,571.31,869.82,574.29,867.46,576.53"/>
	<path class="st2" d="M578.99,971.24L578.99,971.24c-8.22-4.74-11.04-15.25-6.29-23.48l72.84-126.18
		c4.75-8.22,15.26-11.03,23.48-6.29c8.23,4.74,11.04,15.25,6.3,23.48l-72.85,126.18C597.73,973.17,587.21,975.98,578.99,971.24"/>
	<path class="st2" d="M261.77,971.24L261.77,971.24c-8.22-4.74-11.04-15.25-6.29-23.48l72.85-126.18
		c4.75-8.22,15.25-11.03,23.47-6.29c8.23,4.74,11.04,15.25,6.3,23.48l-72.85,126.18C280.5,973.17,269.99,975.98,261.77,971.24"/>
	<path class="st2" d="M422.24,971.24L422.24,971.24c-8.22-4.74-11.04-15.25-6.29-23.48l72.84-126.18
		c4.75-8.22,15.26-11.03,23.48-6.29c8.23,4.74,11.04,15.25,6.3,23.48l-72.85,126.18C440.98,973.17,430.46,975.98,422.24,971.24"/>
</g>
</svg>
