<?xml version="1.0" encoding="utf-8"?>
<!-- Generator: Adobe Illustrator 24.1.1, SVG Export Plug-In . SVG Version: 6.00 Build 0)  -->
<svg version="1.1" id="Layer_1" xmlns="http://www.w3.org/2000/svg" xmlns:xlink="http://www.w3.org/1999/xlink" x="0px" y="0px"
	 viewBox="0 0 1080 1080" style="enable-background:new 0 0 1080 1080;" xml:space="preserve">
<style type="text/css">
	.st0{fill:#FCCF23;}
	.st1{clip-path:url(#SVGID_5_);fill:url(#SVGID_6_);}
	.st2{fill:#109BD5;}
	.st3{fill:#E7453A;}
	.st4{fill:#FFFFFF;}
	.st5{fill:#F9BB16;}
	.st6{clip-path:url(#SVGID_7_);fill:url(#SVGID_8_);}
	.st7{clip-path:url(#SVGID_9_);fill:url(#SVGID_10_);}
	.st8{clip-path:url(#SVGID_11_);fill:url(#SVGID_12_);}
</style>
<g>
	<path class="st5" d="M952.49,808.65c-5.18-9.74-14.05-12.4-24.51-11.23c-17.74,1.87-35.53,3.57-53.34,5.39c-1.43,0-2.8,0-4.24,0.05
		c-1.98,0.22-3.97,0.33-5.89,0.5c1.71-0.32,3.52-0.5,5.46-0.5c-7.39,0-14.83-0.05-22.21-0.05c-4.13-0.11-8.26-0.16-12.4-0.27
		c-1.92-0.11-3.97-0.22-5.89-0.33h-0.11c-6.5-2.42-13.44-1.76-20.16-1.98c-6.29-2.37-12.67-2.98-19.28-1.54
		c-2.81-2.21-5.9-3.65-9.6-2.81c-2.37-2.31-5.34-1.92-8.21-1.87c-2.48-2.1-5.46-2.03-8.43-2.1c-2.47-2.14-5.51-1.92-8.48-1.98
		c-4.57-2.48-9.53-3.74-14.7-4.08c-4.96-2.69-10.14-4.62-15.87-4.51c-5.07-1.98-10.08-4.02-15.15-6.06
		c-5.84-3.63-12.34-5.78-18.89-7.87c-7.44-3.47-14.93-6.94-22.37-10.46c-8.93-4.96-17.85-9.98-26.77-14.99
		c-3.58-3.09-7.23-5.89-12.29-5.73c-1.33-1.44-2.59-2.86-3.86-4.3c-2.81-4.18-7.89-4.96-11.68-7.76c-0.28-1.65-1.44-2.21-2.93-2.43
		c-2.26-2.75-4.79-5.12-8.32-6.22c-2.14-2.7-4.69-4.96-7.98-6.34c-3.7-3.91-7.55-7.71-12.4-10.24c-3.7-3.36-7.33-6.72-11.02-10.08
		c-3.52-4.25-6.72-8.77-12.34-10.59c-2.26-2.58-4.51-5.23-6.83-7.87c-0.72-3.09-2.98-4.8-5.46-6.45c-1.92-2.1-3.79-4.19-5.73-6.34
		c-1.54-3.3-3.69-6.06-6.77-8.05c-2.98-4.51-5.79-9.09-10.03-12.56c-3.09-5.06-6.11-10.24-10.53-14.37
		c-2.03-5.78-7.09-9.47-10.4-14.37c0.01,0,0.01,0,0.01,0c-14.03-26.46-28.47-52.72-39.33-80.72c-0.01,0.01-0.02,0.04-0.02,0.05
		c0-0.01,0-0.02,0-0.05c-0.99-6.11-3.25-11.84-5.79-17.46c-0.11-0.33-0.27-0.72-0.43-1.05c-0.34-4.4-1.55-8.59-3.74-12.45
		c-3.42-5.07-0.83-11.68-4.36-16.75c0-3.52-0.32-6.94-2.26-10.02c-0.66-3.42-1.38-6.89-2.03-10.3c-0.11-3.69,0.43-7.44-1.87-10.75
		c-0.34-4.9,0.43-10.02-2.1-14.59c-0.27-6.83,0.55-13.72-1.93-20.33c-0.21-13.66-0.43-27.38-0.71-41.04v-2.16
		c0.11-4.79,0.21-9.63,0.32-14.43c0.11-2.03,0.22-4.07,0.33-6.05c-0.05,0-0.11,0.05-0.16,0.05c0.21-0.33,0.38-0.66,0.5-0.99
		c1.49-2.98,1.15-6.22,0.99-9.42c0.11-1.43,0.16-2.86,0.21-4.24c1.33-8.98,2.65-17.9,3.97-26.88c1.82-5.34-0.21-11.36,2.93-16.42
		c1.98-2.54,1.87-5.46,1.6-8.38c1.92-6.88,3.91-13.77,5.89-20.66c1.65-5.5,3.31-10.96,4.96-16.48c2.43-5.34,5.18-10.58,5.46-16.58
		c1.04-2.7,2.03-5.34,3.09-7.98c2.7-2.27,3.86-5.07,3.63-8.54c1.6-2.59,4.24-4.69,3.47-8.27c2.48-2.19,2.81-5.12,2.81-8.15
		c5.39-2.43,6.11-7.71,7.65-12.51c-0.27-3.63,3.74-5.07,4.24-8.27c0.33-0.55,0.45-1.04,0.4-1.65c4.63-5.67,8.59-11.73,10.46-18.89
		c2.53-1.26,4.4-3.02,4.46-6.11c1.31-1.38,2.69-2.75,4.07-4.13c0.99-1.49,2.05-2.93,3.04-4.35c0.27-1.17,0.5-2.32,0.77-3.47
		c2.14-2.21,5.5-3.2,6.29-6.67c4.29-5.5,8.53-10.96,12.77-16.48c8.11-9.74,9.42-18.29,3.92-27.21c-5.84-9.41-14.7-11.73-25.07-9.86
		c-75.85,13.44-144.61,42.97-205.49,90.3c-23.07,17.9-45.23,36.8-63.13,60.16c-1.43,4.3-6.22,4.69-8.93,7.98
		c-33.26,41.05-60.43,85.61-78.55,135.41c-8.75,23.92-17.57,47.77-20.38,73.32c-9.36,39.12-11.73,78.84-9.2,118.84
		c1.76,28.43,4.74,56.8,13.33,84.17c-0.05,9.42,3.69,17.96,6.45,26.61c26.4,82.58,70.9,153.49,136.13,211
		c2.98,5.34,8.59,7.82,13.05,11.34c105,83.69,224.22,119.11,357.54,102.09c119.87-15.32,217.98-71.95,296.26-163.51
		C955.31,827.21,957.67,818.35,952.49,808.65"/>
	<path class="st5" d="M521.71,488.49c-0.15,5.05-1.15,10.18,1.5,14.94c0.11-1.54,0.24-3.09,0.36-4.64
		C522.88,495.37,524.66,491.5,521.71,488.49"/>
	<polygon class="st5" points="819.4,171.83 857.93,269.19 955.3,307.72 857.93,346.26 819.4,443.62 780.87,346.26 683.5,307.72 
		780.87,269.19 	"/>
</g>
</svg>
