<?xml version="1.0" encoding="utf-8"?>
<!-- Generator: Adobe Illustrator 24.1.1, SVG Export Plug-In . SVG Version: 6.00 Build 0)  -->
<svg version="1.1" id="Layer_1" xmlns="http://www.w3.org/2000/svg" xmlns:xlink="http://www.w3.org/1999/xlink" x="0px" y="0px"
	 viewBox="0 0 1080 1080" style="enable-background:new 0 0 1080 1080;" xml:space="preserve">
<style type="text/css">
	.st0{fill:#FCCF23;}
	.st1{clip-path:url(#SVGID_5_);fill:url(#SVGID_6_);}
	.st2{fill:#109BD5;}
	.st3{fill:#E7453A;}
	.st4{fill:#FFFFFF;}
	.st5{fill:#F9BB16;}
	.st6{clip-path:url(#SVGID_7_);fill:url(#SVGID_8_);}
	.st7{clip-path:url(#SVGID_9_);fill:url(#SVGID_10_);}
	.st8{clip-path:url(#SVGID_11_);fill:url(#SVGID_12_);}
</style>
<g>
	<path class="st4" d="M812.93,471.69c-2.05,38.52-15.54,73.03-38.1,103.86c-32.26,44.1-75.34,71.95-128.93,83.07
		c-11.39,2.37-22.97,3.96-34.62,4.01c-125.7,0.05-251.35,0.72-377-0.31c-47.28-0.36-86.1-21.34-116.31-57.91
		c-17.13-20.76-27.85-44.46-32.67-70.82c-0.66-3.7-0.61-7.54-0.92-11.29c-3.18-6.36-0.93-13.18-1.49-19.75
		c3.08-4.05,0.87-8.71,1.49-13.08c0.05-2.15,0.1-4.3,0.15-6.46c1.18-11.23,4.78-21.9,8.16-32.62c1.64-3.84,3.28-7.64,4.92-11.49
		c0.56-1.08,1.13-2.15,1.64-3.28c2.71-4.31,5.38-8.67,8.05-13.03c3.69-7.44,9.43-13.39,14.71-19.6
		c20.26-23.38,45.19-39.34,75.08-47.38c7.54-4.67,16.92-2.31,24.51-6.51c3.34-5.18,0.93-10.92,1.6-16.36
		c0-22.57,6.77-43.7,15.23-64.16c5.84-14.21,13.03-27.96,22.41-40.36c9.23-13.44,20.15-25.44,32.62-35.95
		c10.41-9.59,21.69-18,34.31-24.46c10.15-6.62,20.97-11.69,32.67-14.72c9.24-4.82,19.18-6.87,29.39-8.15
		c19.28-5.74,39.03-6.05,58.78-3.85c4.82,0.56,10.3-1.43,14.76,2.21c9.75-0.06,18.98,2.36,27.75,6.51
		c11.69,2.36,22.82,6.1,32.67,13.08c14.16,5.69,26.57,14,37.59,24.51c12.83,8.92,22.83,20.67,32.62,32.67
		c5.23,7.23,10.2,14.62,15.74,21.54c4.15,5.23,10.82,4,16.46,4.46c25.08,2.1,48.57,9.69,71.24,20.1c1.13,0.51,1.9,1.9,2.76,2.82
		c29.24,15.13,54.72,34.62,73.39,62.16c4.77,6.82,10.87,12.82,13.13,21.18c3.64,5.02,8.1,9.59,8.21,16.36
		c0.56,1.08,1.08,2.15,1.64,3.23c2.15,5.44,4.36,10.87,6.56,16.31c5.59,12.51,7.54,25.85,9.64,39.23
		c2.21,12.06,1.75,24.26,1.7,36.46C814.42,466.56,815.24,469.49,812.93,471.69"/>
	<path class="st2" d="M508.06,874.96L508.06,874.96c-8.07-4.66-10.84-14.98-6.17-23.06l71.53-123.91
		c4.67-8.07,14.99-10.83,23.06-6.17c8.08,4.66,10.84,14.98,6.18,23.06l-71.54,123.91C526.45,876.85,516.13,879.62,508.06,874.96"/>
	<path class="st2" d="M196.55,874.96L196.55,874.96c-8.07-4.66-10.84-14.98-6.17-23.06l71.53-123.91
		c4.67-8.07,14.99-10.83,23.06-6.17c8.08,4.66,10.84,14.98,6.18,23.06l-71.54,123.91C214.95,876.85,204.62,879.62,196.55,874.96"/>
	<path class="st2" d="M354.13,874.96L354.13,874.96c-8.07-4.66-10.84-14.98-6.17-23.06l71.53-123.91
		c4.67-8.07,14.99-10.83,23.06-6.17c8.08,4.66,10.84,14.98,6.18,23.06l-71.54,123.91C372.53,876.85,362.2,879.62,354.13,874.96"/>
	<path class="st4" d="M867.44,827.77c-6.49-3.7-13.54-5.35-20.94-5.74c-2.42-1.32-5.08-0.82-7.63-0.82
		c-84.34,0.01-168.68,0.06-253.02,0.07c-2.62,0-5.19,0.04-7.63,1.15c-5.33,1.68-7.71,5.73-7.71,10.92c0,5.18,2.39,9.22,7.72,10.91
		c5.83,1.96,11.79,1.13,17.73,0.79c2.21,0.12,4.42,0.32,6.63,0.33c41.81,0.04,83.63,0.07,125.44,0.07
		c39.04,0.01,78.07-0.03,117.11-0.05c6.88,0.7,12.99,3.52,18.94,6.79c6.04,5.02,11.28,10.71,13.31,18.51
		c4.14,15.96-1.03,28.9-13.35,39.36c-9.28,5.76-19.27,7.58-29.99,5.47c-9.12-3.78-18.19-7.64-22.46-17.61
		c-1.99-5.55-3.69-11.15-4.09-17.11c-0.5-7.46-5.26-12.03-11.93-11.84c-6.81,0.2-11.79,5.46-11.51,12.91
		c0.75,19.87,8.95,35.86,25.43,47.35c7.35,5.34,15.35,9.02,24.54,9.75c11.66,2.58,22.74,0.78,33.38-4.4
		c8.43-3.24,15.36-8.49,20.88-15.63c18.85-24.07,19.14-51.34-0.05-75.53C882.85,836.13,875.71,831.19,867.44,827.77"/>
	<path class="st4" d="M976.59,670.49c-4.38-4.55-9.8-7.42-15.63-9.64c-5.14-2.71-10.56-4.44-16.44-4.49
		c-8.23-2.13-16.07-0.64-23.75,2.47c-9.3,2.34-16.86,7.51-23.31,14.46c-11.84,11.19-17.35,25.32-18.59,41.22
		c-0.46,6.05,4.25,11.09,10.13,11.95c5.82,0.84,10.56-2.42,12.71-8.77c0.18-2.15-0.01-4.42,0.6-6.45
		c3.46-11.53,9.57-21.24,19.9-27.9c7.22-3.96,15.05-4.15,22.99-3.69c-0.81-0.02-1.53-0.12-2.17-0.26c0.66,0.08,1.34,0.17,2.17,0.26
		c4.78,1.16,9.12,3.38,13.41,5.72c8.71,6.97,13.72,16.05,15.48,27c0,1.69,0,3.38,0,5.06c-0.26,0.64-0.36,1.27-0.37,1.91
		c-2.13,11.44-8.63,19.97-18.41,26.33c-6.13,2.25-12.21,4.71-18.94,4.44c-1.11-0.06-2.21-0.17-3.32-0.17
		c-139.64,0.04-279.27,0.09-418.91,0.18c-2.19,0-4.46,0.25-6.55,0.88c-7.47,2.26-10.63,10.16-6.74,16.92
		c3.92,6.82,10.44,6.7,17.09,5.95c1.66,0.12,3.32,0.32,4.98,0.32c137.18,0.07,274.36,0.12,411.54,0.13c2.55,0,5.21,0.54,7.61-0.88
		c4.99-0.22,9.82-1.08,14.34-3.31c7.56-3.2,15.64-5.5,20.95-12.47c6.83-4.81,11.3-11.45,14.82-18.87
		C1001.74,718.72,998.91,688.31,976.59,670.49"/>
	<path class="st4" d="M581.61,726.46c3.65,0.26,7.34-0.04,11.02-0.08h20.03c7.78,0,15.57,0,23.35,0c6.67,0,13.35,0,20.03,0
		c10.38,0,20.76,0,31.14,0c17.8,0,35.6,0,53.4,0c11.87,0,23.73-0.01,35.59-0.01c9.29,0.02,18.6,1.1,27.81-1.03
		c8.09-1.1,15.66-3.59,22.36-8.38c3.77-1.95,7.11-4.52,10.25-7.35c27.51-24.71,23.26-72.81-8.07-91.14
		c-5.6-5.28-12.97-6.56-19.93-8.78c-8.62-2.75-17.21-2.26-25.78,0.21c-8.39,1.68-15.77,5.4-22.21,11.02
		c-15.27,11.59-22.51,27.45-24.14,46.12c-0.5,5.69,4.22,10.96,9.72,11.75c6.46,0.94,11.88-2.58,13.37-8.85
		c1.24-5.19,2.29-10.42,3.42-15.63c4.02-9.27,11.5-15.09,19.91-19.97c7.27-2.5,14.67-3.17,22.21-1.42
		c9.39,3.15,16.56,9.16,22.11,17.24c5.69,12.18,5.72,24.19-1.12,35.99c-6.06,7.76-13.98,12.84-23.22,15.96
		c-8.86,1.24-17.81,0.59-26.7,1.08c-11.87,0-23.74,0-35.6,0c-17.79,0-35.6,0-53.39,0.01c-10.39,0-20.77,0-31.15,0
		c-6.68-0.01-13.35-0.01-20.02-0.01h-23.36h-20.03c-3.48-0.05-6.98-0.26-10.46-0.13c-6.98,0.26-11.64,4.86-11.74,11.35
		C570.32,720.8,574.98,725.99,581.61,726.46"/>
</g>
</svg>
