<?xml version="1.0" encoding="utf-8"?>
<!-- Generator: Adobe Illustrator 24.1.1, SVG Export Plug-In . SVG Version: 6.00 Build 0)  -->
<svg version="1.1" id="Layer_1" xmlns="http://www.w3.org/2000/svg" xmlns:xlink="http://www.w3.org/1999/xlink" x="0px" y="0px"
	 viewBox="0 0 1080 1080" style="enable-background:new 0 0 1080 1080;" xml:space="preserve">
<style type="text/css">
	.st0{fill:#FCCF23;}
	.st1{clip-path:url(#SVGID_5_);fill:url(#SVGID_6_);}
	.st2{fill:#109BD5;}
	.st3{fill:#E7453A;}
	.st4{fill:#FFFFFF;}
	.st5{fill:#F9BB16;}
	.st6{clip-path:url(#SVGID_7_);fill:url(#SVGID_8_);}
	.st7{clip-path:url(#SVGID_9_);fill:url(#SVGID_10_);}
	.st8{clip-path:url(#SVGID_11_);fill:url(#SVGID_12_);}
</style>
<g>
	<path class="st4" d="M944.06,618c-2.28,42.72-17.24,80.99-42.26,115.18c-35.78,48.91-83.55,79.8-142.99,92.13
		c-12.63,2.63-25.48,4.39-38.39,4.44c-139.4,0.06-278.76,0.8-418.11-0.34c-52.44-0.4-95.49-23.66-128.99-64.22
		c-19-23.03-30.89-49.31-36.24-78.54c-0.73-4.1-0.68-8.36-1.02-12.52c-3.52-7.05-1.03-14.61-1.65-21.9
		c3.41-4.49,0.96-9.67,1.65-14.5c0.06-2.39,0.11-4.77,0.17-7.17c1.31-12.46,5.3-24.29,9.05-36.17c1.82-4.26,3.63-8.47,5.46-12.74
		c0.62-1.19,1.25-2.39,1.82-3.63c3.01-4.78,5.97-9.62,8.93-14.45c4.09-8.25,10.46-14.85,16.32-21.73
		c22.47-25.93,50.11-43.63,83.27-52.55c8.36-5.18,18.77-2.56,27.19-7.22c3.7-5.75,1.03-12.12,1.77-18.15
		c0-25.03,7.51-48.46,16.89-71.16c6.48-15.75,14.45-31,24.86-44.75c10.23-14.91,22.35-28.21,36.17-39.87
		C379.49,297.49,392,288.17,406,281c11.26-7.34,23.26-12.97,36.23-16.33c10.24-5.34,21.28-7.62,32.59-9.04
		c21.39-6.37,43.29-6.71,65.19-4.27c5.34,0.62,11.43-1.59,16.37,2.45c10.81-0.06,21.05,2.62,30.78,7.22
		c12.97,2.62,25.3,6.76,36.23,14.5c15.7,6.31,29.46,15.53,41.69,27.19c14.23,9.89,25.31,22.92,36.18,36.23
		c5.8,8.02,11.32,16.21,17.46,23.89c4.61,5.8,12.01,4.43,18.26,4.95c27.82,2.33,53.87,10.75,79.01,22.29
		c1.25,0.57,2.1,2.11,3.07,3.13c32.43,16.78,60.69,38.39,81.39,68.94c5.29,7.56,12.06,14.22,14.56,23.49
		c4.04,5.57,8.99,10.64,9.11,18.15c0.62,1.19,1.19,2.39,1.82,3.58c2.4,6.03,4.84,12.06,7.28,18.09c6.2,13.88,8.36,28.66,10.69,43.51
		c2.45,13.37,1.94,26.9,1.88,40.44C945.71,612.31,946.62,615.55,944.06,618"/>
</g>
</svg>
