<svg id="Layer_1" data-name="Layer 1" xmlns="http://www.w3.org/2000/svg" viewBox="0 0 1080 1080"><defs><style>.cls-1{fill:#2b3a8c;}.cls-2{fill:#0d76b3;}.cls-3{fill:#1ca9df;}</style></defs><path class="cls-1" d="M426.32,554.66c-1,.64-2.07,1.16-3.1,1.74h0l-23.37,11.18-16.11,5.69h0a205.65,205.65,0,0,1-21.81,4.34c-13.35,1.23-26.66.11-40-.57h0c-6.66-1.06-13.37-1.68-20.08-2.28-6.91-1.09-13.81-2.25-20.74-3.23-2.06-.29-4.05-1.48-6.54-.92a19.53,19.53,0,0,0,3.86,3.66h0l.57.53a52.81,52.81,0,0,0,13.89,9,7,7,0,0,0,2.85,1.53,85.3,85.3,0,0,0,15,5.63c2.39.66,4.64,1.82,7.19,1.83h0c6.34,2.13,12.95,2.88,19.54,3.73h0c17.75,2.33,36.29,2.39,53.42-3.36h0c15.8-5.35,27.4-15.69,35.67-30,1.27-1.62,4.81-11.85-.25-8.48"/><path class="cls-2" d="M460.05,450.08C457.36,536.74,285.32,562,200.57,530c58.82,60.68,314.88,41.69,259.48-79.93"/><path class="cls-2" d="M202.07,506.37a2.81,2.81,0,0,0,1.11,1.84.28.28,0,0,0,.15.33c10.35,15.52,30.08,21.28,47.43,23.25-.22-.69-.81-.73-1.31-.89h0l-11-6.77c-2.59-2.5-5.64-4.39-8-7.16-13.49-14.53-11.8-34.76-1-50.25,4.92-5.81,10-11.56,16.14-16.11,38.73-26.44,87.21-32.93,132.94-35.9-3.44-1.11-6.66-.86-9.86-.74a408.76,408.76,0,0,0-49,1.69C306,417,292.36,418.58,279,421.82a164.68,164.68,0,0,0-29,8.85,93.58,93.58,0,0,0-18.45,9.16h0A61.22,61.22,0,0,0,218.11,450a53.43,53.43,0,0,0-13.35,17.27h0c-6.12,11.81-9.68,26.9-2.69,39.09"/><path class="cls-3" d="M364.18,519.08l-4.4,5.76c3-.78,5.51-1.4,7.8-2.8h0c10.23-3.41,22.72-13.92,16.67-25.72-6.32-12.64-22.09-14.53-34.78-15.48-33.86-2.53-69.39,7.93-93.39,32.73,26.66-12.67,55.26-24.42,85.43-21.15,13.39.73,31.54,11.36,22.67,26.66"/><path class="cls-3" d="M344.72,430.13h0c-26.72,3.09-52.8,12.71-74.63,28.4a130.94,130.94,0,0,0-19.36,16.17c14.64-3.71,31-11,46.65-14.66h0a310.16,310.16,0,0,1,50.12-9.46h0c14.56-1.14,29.37-.81,43.45,3.41,20.77,6.08,36.05,28.63,20.83,48.21a68.77,68.77,0,0,0,21.37-16.46h0c40.4-50.56-54.52-62.65-88.43-55.61"/><path class="cls-1" d="M328.57,621.61h0c-.49-.55-1.18-.43-1.81-.54-9.06-1.64-18-3.59-25.47-9.5-2-1.61-4-3.35-5.88-5.09-.88-.79-1.54-1.17-1.86.37-.92,4.42-1.08,8.84.5,13.14,2.94,8.06,9.46,11.84,17.23,13.83a69.35,69.35,0,0,0,22.84,1.78,65.56,65.56,0,0,0,29.58-9.4,27.41,27.41,0,0,0,8.61-5.84A83.15,83.15,0,0,1,357,623a114,114,0,0,1-28.39-1.38"/><path class="cls-3" d="M300.18,654.55h0c-4.41-.75-8.71-1.82-12.42-4.51a14.48,14.48,0,0,0-3.42-3.52c-.32,1.59-.57,2.83-.81,4.07l-.12,1.09a3,3,0,0,0-.49,2.25c0,.32-.06.63-.08,1a3.13,3.13,0,0,0-.44,2.4,30.82,30.82,0,0,0-.53,10.17c.21,2.74.69,5.53,2.95,7.52,1.44,1.27,2.79,1.61,4.16-.25,1.2-1.62,2.63-3.06,4-4.58a38.42,38.42,0,0,0,5.69-6.13,25.81,25.81,0,0,0,4.29-4.57,1.55,1.55,0,0,0,1-1.62l1.24-1.05c1-.37,1.48-1.17,2.16-2.22Z"/><path class="cls-3" d="M513.39,484.06a55.78,55.78,0,0,0,24.47,6.08c10.13,0,15.49-4.2,15.49-10.57,0-6.09-4.63-9.56-16.36-13.62-16.22-5.79-26.94-14.77-26.94-29,0-16.65,14.05-29.25,36.93-29.25,11.15,0,19.11,2.18,24.9,4.93L567,430.33a45.67,45.67,0,0,0-20.27-4.63c-9.56,0-14.19,4.49-14.19,9.41,0,6.23,5.36,9,18.1,13.76,17.23,6.37,25.19,15.35,25.19,29.1,0,16.37-12.45,30.27-39.24,30.27-11.15,0-22.15-3-27.65-6.08Z"/><path class="cls-3" d="M611.56,465.81h.29a95.31,95.31,0,0,1,5.07-8.54L631.26,436h26.5l-25.35,28.67,29,42.14H634.3l-17.24-29.11-5.5,6.95v22.16h-22V404h22Z"/><path class="cls-3" d="M685,436l10.57,34.9c1.16,4.05,2.6,9.41,3.47,13.18h.58c.87-3.91,2-9.13,3-13.33L711.48,436h23.46l-16.51,46.63c-10.14,28.23-16.94,39.38-24.91,46.48a38.68,38.68,0,0,1-21.14,9.7l-4.78-18.53a35.32,35.32,0,0,0,9.56-3.77,25.41,25.41,0,0,0,9.12-8.83,6.57,6.57,0,0,0,1.16-3.19,8.84,8.84,0,0,0-.87-3.62L660.51,436Z"/><path class="cls-1" d="M512.66,543.82a192.12,192.12,0,0,1,29.39-2c14.48,0,24.62,2.18,31.57,7.68,5.94,4.63,9.12,11.58,9.12,20.56,0,12.31-8.83,20.85-17.23,23.89v.44c6.81,2.75,10.57,9.12,13,18.1,3.05,11.15,5.94,23.89,7.82,27.65H563.77c-1.44-2.89-3.91-10.71-6.66-22.73-2.75-12.31-7-15.5-16.07-15.64h-6.52v38.37H512.66Zm21.86,42h8.69c11,0,17.52-5.5,17.52-14,0-8.84-6.08-13.47-16.21-13.47-5.36,0-8.4.29-10,.72Z"/><path class="cls-1" d="M658,623c0,6.66.29,13.18,1.16,17.08H639.36l-1.3-7.09h-.43c-4.64,5.65-11.88,8.69-20.28,8.69-14.33,0-22.88-10.43-22.88-21.72,0-18.39,16.51-27.08,41.56-27.08V592c0-3.91-2-9.27-12.88-9.27a39.78,39.78,0,0,0-19.55,5.36l-4.06-14.19c4.93-2.75,14.63-6.37,27.51-6.37,23.61,0,31,13.9,31,30.7Zm-21.28-16.37c-11.59,0-20.56,2.75-20.56,11.15,0,5.65,3.76,8.4,8.68,8.4a12.17,12.17,0,0,0,11.44-8.11,15.75,15.75,0,0,0,.44-3.76Z"/><path class="cls-1" d="M744.2,537.3V619c0,8,.29,16.36.58,21.14H725.23l-.87-10.28h-.43c-4.35,7.82-13,11.88-22.16,11.88-16.79,0-30.26-14.34-30.26-36.35-.15-23.89,14.77-37.79,31.71-37.79,8.83,0,15.5,3.18,18.68,8h.29V537.3Zm-22,62a19.86,19.86,0,0,0-.29-4.06c-1.3-5.79-6.08-10.71-12.89-10.71-10.13,0-15.2,9-15.2,20.13,0,12,5.94,19.55,15.06,19.55a13,13,0,0,0,12.88-10.58,28.61,28.61,0,0,0,.44-5.06Z"/><path class="cls-1" d="M820.8,623c0,6.66.29,13.18,1.16,17.08H802.12l-1.3-7.09h-.43c-4.64,5.65-11.88,8.69-20.28,8.69-14.33,0-22.88-10.43-22.88-21.72,0-18.39,16.51-27.08,41.56-27.08V592c0-3.91-2-9.27-12.88-9.27a39.78,39.78,0,0,0-19.55,5.36l-4.06-14.19c4.93-2.75,14.63-6.37,27.52-6.37,23.6,0,31,13.9,31,30.7Zm-21.28-16.37c-11.59,0-20.56,2.75-20.56,11.15,0,5.65,3.76,8.4,8.68,8.4a12.16,12.16,0,0,0,11.44-8.11,15.75,15.75,0,0,0,.44-3.76Z"/><path class="cls-1" d="M838.33,592.62c0-10.43-.15-17.23-.58-23.31h18.82l.87,13H858c3.62-10.43,12.16-14.77,19.11-14.77a22,22,0,0,1,4.64.43v20.71a32.93,32.93,0,0,0-5.94-.58c-8.11,0-13.61,4.34-15.06,11.15a25.9,25.9,0,0,0-.43,4.92v35.91h-22Z"/></svg>