<?xml version="1.0" encoding="utf-8"?>
<!-- Generator: Adobe Illustrator 24.1.1, SVG Export Plug-In . SVG Version: 6.00 Build 0)  -->
<svg version="1.1" id="Layer_1" xmlns="http://www.w3.org/2000/svg" xmlns:xlink="http://www.w3.org/1999/xlink" x="0px" y="0px"
	 viewBox="0 0 1080 1080" style="enable-background:new 0 0 1080 1080;" xml:space="preserve">
<style type="text/css">
	.st0{fill:#FCCF23;}
	.st1{clip-path:url(#SVGID_5_);fill:url(#SVGID_6_);}
	.st2{fill:#109BD5;}
	.st3{fill:#E7453A;}
	.st4{fill:#FFFFFF;}
	.st5{fill:#F9BB16;}
	.st6{clip-path:url(#SVGID_7_);fill:url(#SVGID_8_);}
	.st7{clip-path:url(#SVGID_9_);fill:url(#SVGID_10_);}
	.st8{clip-path:url(#SVGID_11_);fill:url(#SVGID_12_);}
</style>
<g>
	<path class="st4" d="M532.87,905.76c-15.12-6.48-20.21-18.25-19.7-34.23c0.72-22.57,0.18-45.2,0.18-69.39
		c-2.97,2.09-5,3.42-6.93,4.87C488.12,820.68,470,834.6,451.5,848c-16.94,12.29-38.57,3.61-42.11-16.81
		c-1.83-10.59,2.54-19.04,11.02-25.41c29.1-21.86,58.17-43.78,87.4-65.47c4.04-2.99,5.68-6.06,5.65-11.16
		c-0.2-44.75-0.11-89.51-0.11-134.26v-8.09c-8.2,4.87-15.31,9.02-22.38,13.26c-32.98,19.85-65.89,39.83-99.03,59.46
		c-4.57,2.7-6.84,5.69-7.34,10.92c-2.36,25.09-4.95,50.14-7.52,75.21c-1.27,12.3-2.25,24.64-4.16,36.84
		c-2.2,14.16-14.89,23.32-28.82,21.7c-13.49-1.58-23.77-13.19-22.69-27.33c1.73-22.75,4.38-45.43,6.61-68.14
		c0.32-3.23,0.49-6.46,0.82-10.87c-3.31,1.83-5.55,3.01-7.71,4.32c-19.58,11.71-39.03,23.64-58.74,35.14
		c-17.31,10.09-36.77,0.9-40.19-18.62c-1.78-10.14,3.47-20.47,13.9-26.77c19.53-11.79,39.14-23.46,58.71-35.22
		c2.02-1.2,3.99-2.51,7.07-4.47c-12.71-5.23-24.54-10.12-36.39-14.95c-11-4.47-22.04-8.84-33.02-13.34
		c-15.56-6.38-22.41-20.85-16.67-35.04c5.75-14.25,20.77-20.02,36.23-13.76c33.66,13.61,67.28,27.35,100.98,40.84
		c2.51,1,6.37,1.61,8.41,0.4c42.11-24.98,84.04-50.23,126.79-75.93c-1.87-1.42-3.16-2.63-4.64-3.51
		c-40.12-24.16-80.3-48.22-120.36-72.48c-3.74-2.27-6.7-1.97-10.5-0.41c-33.38,13.69-66.82,27.23-100.26,40.75
		c-16.02,6.47-30.96,0.82-36.74-13.78c-5.63-14.22,1.29-28.54,16.97-34.92c22.78-9.27,45.61-18.48,69.44-28.14
		c-16.77-10.12-32.61-19.7-48.47-29.24c-5.69-3.43-11.46-6.78-17.15-10.24c-14.31-8.7-18.71-24.08-10.67-37.24
		c7.87-12.87,23.44-16.33,37.41-8.02c19.41,11.53,38.71,23.26,58.06,34.89c2,1.2,4.06,2.31,7.6,4.31
		c-0.82-9.03-1.5-16.86-2.27-24.67c-1.7-17.27-3.84-34.51-5.09-51.81c-1.18-16.58,8.53-28.17,23.91-29.78
		c13.64-1.44,26.14,8.84,28.06,24.57c3.1,25.23,5.29,50.59,7.89,75.89c1.24,12.06,2.41,24.13,4,36.14c0.29,2.15,2.01,4.83,3.87,5.96
		c40.24,24.4,80.59,48.61,120.93,72.83c0.58,0.35,1.26,0.54,2.67,1.13c0.18-2.55,0.47-4.75,0.47-6.96
		c0.03-44.99-0.04-89.99,0.12-134.99c0.03-4.74-1.38-7.75-5.27-10.62c-29.24-21.68-58.28-43.63-87.41-65.46
		c-8.5-6.36-13.1-14.69-11.47-25.25c3.13-20.47,24.99-29.67,41.8-17.52c18.71,13.51,37.01,27.59,55.49,41.39
		c1.83,1.37,3.78,2.58,6.77,4.59c0-3.74,0-6.25,0-8.78c0-22.37-0.18-44.75,0.08-67.12c0.17-14.53,9.55-25.72,22.2-27.44
		c13.14-1.77,25.1,5.41,28.96,17.86c1.1,3.54,1.28,7.47,1.29,11.24c0.12,22.13,0.05,44.28,0.05,66.42v8.46
		c5.07-3.73,9.02-6.59,12.93-9.51c16.38-12.28,32.64-24.69,49.13-36.8c11.33-8.32,25.08-7.45,34.56,1.68
		c8.69,8.34,10.69,22.71,3.9,32.69c-2.6,3.83-6.33,7.1-10.07,9.93c-28.46,21.52-57.1,42.81-85.51,64.41
		c-2.29,1.73-4.69,5.14-4.72,7.78c-0.26,47.38-0.17,94.75-0.13,142.13c0,0.42,0.26,0.86,0.62,2.01c2.11-1.09,4.18-2.02,6.1-3.18
		c38.32-22.99,76.58-46.08,114.96-68.96c4.4-2.63,6.64-5.27,7.15-10.85c3.33-35.97,7.33-71.88,10.94-107.82
		c1.55-15.44,13.28-26.09,28.19-25.12c14.88,0.96,25.58,12.96,24.35,28.64c-1.61,20.61-4.13,41.15-6.23,61.72
		c-0.46,4.49-0.79,8.96-1.32,14.98c3.18-1.72,5.33-2.78,7.39-4.01c19.16-11.49,38.27-23.07,57.46-34.52
		c14.51-8.65,30.08-5.56,38.07,7.39c8.2,13.33,3.74,28.68-11.14,37.69c-19.09,11.58-38.28,23.03-57.41,34.55
		c-2.2,1.33-4.32,2.79-7.19,4.65c24.22,9.91,47.76,19.23,71.05,29.15c19.17,8.18,22.73,32.09,6.89,44.77
		c-8.64,6.91-18.24,7.24-28.23,3.17c-32.97-13.44-66-26.74-98.88-40.39c-5.32-2.2-9.3-2.11-14.38,0.99
		c-38.56,23.52-77.32,46.67-116.02,69.94c-2.01,1.22-3.97,2.5-6.68,4.19c1.86,1.41,3.18,2.6,4.68,3.51
		c39.89,24.04,79.85,48,119.66,72.19c3.99,2.42,7.12,2.18,11.17,0.53c33.37-13.71,66.8-27.26,100.24-40.8
		c16.01-6.47,31.02-0.87,36.79,13.64c5.65,14.19-1.14,28.58-16.83,35.02c-22.81,9.38-45.7,18.57-69.58,28.26
		c2.82,1.82,4.88,3.23,7.01,4.51c20.15,12.15,40.41,24.1,60.41,36.47c10.74,6.64,14.84,18.99,10.96,30.46
		c-3.9,11.52-14.76,19.04-27.04,17.66c-4.75-0.54-9.62-2.64-13.83-5.09c-19.08-11.15-37.96-22.67-56.91-34.05
		c-2-1.19-4.06-2.29-7.05-3.96c0,3.69-0.26,6.63,0.04,9.5c2.15,20.81,4.27,41.62,6.69,62.4c1.35,11.46-0.88,21.44-10.64,28.46
		c-8.18,5.89-17.29,6.51-26.4,2.42c-8.97-4.02-14.04-11.49-15.07-21.08c-3.63-33.79-6.89-67.62-10.32-101.44
		c-0.41-4.02-0.69-8.07-1.47-12.03c-0.31-1.6-1.41-3.58-2.74-4.38c-41.12-24.77-82.32-49.44-123.52-74.08
		c-0.32-0.19-0.87,0.01-2.05,0.06v6.13c0,44.99,0.09,89.99-0.12,134.98c-0.03,5.15,1.78,8.11,5.81,11.1
		c29.06,21.52,57.9,43.33,86.87,64.97c10.06,7.5,13.88,17.31,11.05,29.41c-2.38,10.21-11.46,17.57-22.63,18.94
		c-7.79,0.95-14.39-1.94-20.49-6.54c-17.66-13.34-35.36-26.6-53.07-39.88c-2.02-1.53-4.15-2.91-7.42-5.19v12.26
		c0,19.04-0.69,38.12,0.22,57.13c0.76,15.94-4.08,27.73-19,34.51H532.87z"/>
</g>
</svg>
