<?xml version="1.0" encoding="utf-8"?>
<!-- Generator: Adobe Illustrator 24.1.1, SVG Export Plug-In . SVG Version: 6.00 Build 0)  -->
<svg version="1.1" id="Layer_1" xmlns="http://www.w3.org/2000/svg" xmlns:xlink="http://www.w3.org/1999/xlink" x="0px" y="0px"
	 viewBox="0 0 1080 1080" style="enable-background:new 0 0 1080 1080;" xml:space="preserve">
<style type="text/css">
	.st0{fill:#FCCF23;}
	.st1{clip-path:url(#SVGID_5_);fill:url(#SVGID_6_);}
	.st2{fill:#109BD5;}
	.st3{fill:#E7453A;}
	.st4{fill:#FFFFFF;}
	.st5{fill:#F9BB16;}
	.st6{clip-path:url(#SVGID_7_);fill:url(#SVGID_8_);}
	.st7{clip-path:url(#SVGID_9_);fill:url(#SVGID_10_);}
	.st8{clip-path:url(#SVGID_11_);fill:url(#SVGID_12_);}
</style>
<g>
	<path class="st0" d="M604.4,536.46c0,88.35-71.62,159.97-159.97,159.97c-88.35,0-159.97-71.62-159.97-159.97
		S356.08,376.5,444.44,376.5C532.78,376.5,604.4,448.12,604.4,536.46"/>
	<path class="st0" d="M444.34,310.64L444.34,310.64c-15.54,0-28.14-12.6-28.14-28.14v-98.05c0-15.54,12.6-28.14,28.14-28.14
		c15.54,0,28.14,12.6,28.14,28.14v98.05C472.48,298.04,459.88,310.64,444.34,310.64"/>
	<path class="st0" d="M444.53,916.62L444.53,916.62c-15.54,0-28.14-12.6-28.14-28.14v-98.05c0-15.54,12.6-28.14,28.14-28.14
		c15.54,0,28.14,12.6,28.14,28.14v98.05C472.67,904.02,460.07,916.62,444.53,916.62"/>
	<path class="st0" d="M604.05,376.72L604.05,376.72c-10.99-10.99-10.99-28.81,0-39.8l69.33-69.33c10.99-10.99,28.81-10.99,39.8,0
		c10.99,10.99,10.99,28.81,0,39.8l-69.33,69.33C632.86,387.7,615.03,387.7,604.05,376.72"/>
	<path class="st0" d="M175.69,805.34L175.69,805.34c-10.99-10.99-10.99-28.81,0-39.8l69.33-69.33c10.99-10.99,28.81-10.99,39.8,0
		c10.99,10.99,10.99,28.81,0,39.8l-69.33,69.33C204.5,816.33,186.68,816.33,175.69,805.34"/>
	<path class="st0" d="M670.26,536.37L670.26,536.37c0-15.54,12.6-28.14,28.14-28.14h98.05c15.54,0,28.14,12.6,28.14,28.14
		c0,15.54-12.6,28.14-28.14,28.14H698.4C682.85,564.51,670.26,551.91,670.26,536.37"/>
	<path class="st0" d="M64.28,536.56L64.28,536.56c0-15.54,12.6-28.14,28.14-28.14h98.05c15.54,0,28.14,12.6,28.14,28.14
		c0,15.54-12.6,28.14-28.14,28.14H92.42C76.87,564.7,64.28,552.1,64.28,536.56"/>
	<path class="st0" d="M604.18,696.08L604.18,696.08c10.99-10.99,28.81-10.99,39.8,0l69.33,69.33c10.99,10.99,10.99,28.81,0,39.8
		s-28.81,10.99-39.8,0l-69.33-69.33C593.19,724.89,593.19,707.07,604.18,696.08"/>
	<path class="st0" d="M175.55,267.72L175.55,267.72c10.99-10.99,28.81-10.99,39.8,0l69.33,69.33c10.99,10.99,10.99,28.81,0,39.8
		c-10.99,10.99-28.81,10.99-39.8,0l-69.33-69.33C164.57,296.53,164.57,278.71,175.55,267.72"/>
	<path class="st4" d="M452.01,724.44c84.29,0.96,153.77-66.93,154.86-151.33c0.65-51.33-24.28-97.16-62.95-125.43
		c-11.09,5.89-21.13,13.32-30.47,21.74c-12.15,10.03-22.83,21.52-31.89,34.4c-9.2,11.9-16.28,25.1-22.07,38.77
		c-8.39,19.68-15.15,40.03-15.38,61.83c-0.7,5.24,1.57,10.82-1.71,15.79c-7.37,3.98-16.42,1.61-23.75,6.04
		c-28.97,7.47-53.22,22.62-73.03,45.02c-1.27,1.46-2.57,2.89-3.85,4.35C369.37,705.21,408.49,723.94,452.01,724.44"/>
	<path class="st4" d="M1015.63,731.5c0.06-11.78,0.48-23.59-1.63-35.22c-2.04-12.95-3.92-25.81-9.32-37.9
		c-2.15-5.27-4.26-10.52-6.35-15.78c-0.54-1.03-1.05-2.06-1.59-3.12c-0.09-6.54-4.41-10.95-7.92-15.8
		c-2.17-8.06-8.09-13.87-12.69-20.47c-18.04-26.59-42.65-45.42-70.9-60.06c-0.86-0.88-1.6-2.23-2.69-2.71
		c-21.89-10.06-44.59-17.38-68.83-19.41c-5.44-0.46-11.9,0.74-15.89-4.32c-5.35-6.7-10.15-13.84-15.21-20.82
		c-9.46-11.6-19.12-22.96-31.53-31.56c-10.64-10.18-22.65-18.21-36.31-23.7c-9.52-6.74-20.27-10.34-31.59-12.63
		c-8.46-4.03-17.38-6.34-26.78-6.29c-4.32-3.52-9.63-1.6-14.29-2.15c-9.72-1.09-19.44-1.51-29.11-0.97c-0.7,0.7-1.4,1.41-2.11,2.11
		c0.7-0.69,1.41-1.4,2.1-2.11c-9.3,0.53-18.53,1.98-27.67,4.7c-1.48,0.18-2.95,0.39-4.42,0.62c0.01,0.01,0.01,0.01,0.02,0.02
		c-0.01-0.01-0.01-0.01-0.02-0.02c-8.32,1.28-16.38,3.29-23.95,7.26c-11.32,2.92-21.76,7.83-31.59,14.21
		c-0.97,0.51-1.95,1.05-2.92,1.57c38.99,27.87,64.41,73.44,64.29,124.75c-0.17,84.41-68.92,153.06-153.23,152.97
		c-43.54-0.02-82.84-18.35-110.74-47.62c-3.92,4.49-7.75,9.09-10.44,14.52c-2.57,4.2-5.14,8.44-7.78,12.58
		c-0.48,1.11-1.03,2.14-1.57,3.17c-1.6,3.71-3.17,7.4-4.77,11.12c-3.26,10.35-6.75,20.64-7.86,31.5c-0.06,2.08-0.12,4.18-0.17,6.26
		c-0.57,4.2,1.54,8.72-1.43,12.63c0.54,6.32-1.64,12.93,1.43,19.07c0.31,3.6,0.25,7.32,0.91,10.89
		c4.66,25.47,15.01,48.37,31.57,68.44c24.76,29.98,55.54,49.05,92.19,54.37c6.55,0.97,13.26,1.51,20.19,1.57
		c5.77,0.06,11.52,0.06,17.29,0.09c115.64,0.8,231.3,0.25,346.99,0.23c11.24-0.06,22.44-1.6,33.45-3.89
		c51.78-10.74,93.42-37.65,124.59-80.27c21.8-29.78,34.81-63.12,36.82-100.34C1016.37,736.84,1015.57,734.04,1015.63,731.5
		 M614.25,429.45c4.38-0.29,9.03-2.31,13.74-6.13c0.78-0.63,1.51-1.32,2.24-2.01c-0.73,0.69-1.46,1.39-2.25,2.03
		C623.28,427.15,618.63,429.17,614.25,429.45"/>
</g>
</svg>
