<?xml version="1.0" encoding="utf-8"?>
<!-- Generator: Adobe Illustrator 24.1.1, SVG Export Plug-In . SVG Version: 6.00 Build 0)  -->
<svg version="1.1" id="Layer_1" xmlns="http://www.w3.org/2000/svg" xmlns:xlink="http://www.w3.org/1999/xlink" x="0px" y="0px"
	 viewBox="0 0 1080 1080" style="enable-background:new 0 0 1080 1080;" xml:space="preserve">
<style type="text/css">
	.st0{fill:#FCCF23;}
	.st1{clip-path:url(#SVGID_5_);fill:url(#SVGID_6_);}
	.st2{fill:#109BD5;}
	.st3{fill:#E7453A;}
	.st4{fill:#FFFFFF;}
	.st5{fill:#F9BB16;}
	.st6{clip-path:url(#SVGID_7_);fill:url(#SVGID_8_);}
	.st7{clip-path:url(#SVGID_9_);fill:url(#SVGID_10_);}
	.st8{clip-path:url(#SVGID_11_);fill:url(#SVGID_12_);}
</style>
<g>
	<path class="st5" d="M979.61,646.09c-3.43-6.45-9.29-8.2-16.21-7.43c-11.74,1.24-23.5,2.36-35.28,3.57c-0.94,0-1.85,0-2.8,0.03
		c-1.31,0.15-2.62,0.22-3.9,0.33c1.13-0.21,2.33-0.33,3.61-0.33c-4.89,0-9.8-0.03-14.69-0.03c-2.73-0.07-5.46-0.11-8.2-0.18
		c-1.27-0.07-2.62-0.15-3.9-0.22h-0.07c-4.3-1.6-8.89-1.16-13.33-1.31c-4.16-1.57-8.38-1.97-12.75-1.02
		c-1.86-1.46-3.9-2.41-6.35-1.86c-1.57-1.53-3.53-1.27-5.43-1.24c-1.64-1.39-3.61-1.35-5.58-1.39c-1.63-1.42-3.64-1.27-5.61-1.31
		c-3.03-1.64-6.3-2.48-9.73-2.7c-3.28-1.78-6.71-3.06-10.5-2.99c-3.35-1.31-6.67-2.66-10.02-4.01c-3.86-2.4-8.16-3.82-12.5-5.21
		c-4.92-2.3-9.87-4.59-14.79-6.92c-5.9-3.28-11.81-6.6-17.71-9.91c-2.37-2.04-4.78-3.9-8.13-3.79c-0.88-0.95-1.71-1.89-2.55-2.85
		c-1.86-2.76-5.22-3.28-7.73-5.13c-0.19-1.09-0.95-1.46-1.94-1.61c-1.49-1.82-3.17-3.39-5.5-4.12c-1.42-1.79-3.09-3.28-5.28-4.19
		c-2.44-2.58-4.99-5.1-8.2-6.77c-2.44-2.22-4.85-4.44-7.29-6.67c-2.33-2.81-4.44-5.8-8.16-7c-1.49-1.71-2.98-3.46-4.52-5.21
		c-0.48-2.04-1.97-3.17-3.61-4.26c-1.27-1.39-2.51-2.76-3.79-4.19c-1.02-2.18-2.44-4.01-4.48-5.32c-1.97-2.99-3.83-6.01-6.63-8.31
		c-2.04-3.35-4.04-6.77-6.96-9.51c-1.34-3.82-4.69-6.27-6.88-9.51c0.01,0,0.01,0,0.01,0c-9.28-17.5-18.83-34.87-26.01-53.4
		c-0.01,0.01-0.02,0.02-0.02,0.03c0-0.01,0-0.02,0-0.03c-0.66-4.04-2.15-7.83-3.83-11.55c-0.07-0.22-0.18-0.48-0.29-0.7
		c-0.22-2.91-1.03-5.68-2.48-8.23c-2.26-3.35-0.55-7.73-2.88-11.08c0-2.33-0.22-4.59-1.5-6.63c-0.43-2.26-0.91-4.56-1.34-6.82
		c-0.07-2.44,0.3-4.92-1.24-7.11c-0.22-3.24,0.29-6.63-1.39-9.65c-0.18-4.52,0.36-9.08-1.27-13.45c-0.15-9.04-0.3-18.11-0.48-27.15
		v-1.42c0.07-3.17,0.15-6.38,0.21-9.55c0.07-1.34,0.15-2.69,0.22-4c-0.03,0-0.07,0.03-0.11,0.03c0.15-0.22,0.25-0.43,0.33-0.66
		c0.98-1.97,0.76-4.12,0.66-6.23c0.07-0.94,0.11-1.89,0.14-2.8c0.88-5.94,1.75-11.84,2.62-17.78c1.21-3.53-0.14-7.51,1.94-10.86
		c1.31-1.68,1.24-3.61,1.06-5.54c1.27-4.55,2.58-9.11,3.9-13.66c1.09-3.64,2.19-7.25,3.28-10.9c1.61-3.53,3.43-7,3.61-10.96
		c0.69-1.79,1.34-3.53,2.04-5.28c1.79-1.5,2.55-3.35,2.4-5.65c1.06-1.71,2.8-3.1,2.3-5.47c1.64-1.45,1.86-3.39,1.86-5.39
		c3.57-1.61,4.04-5.1,5.06-8.27c-0.18-2.4,2.48-3.35,2.8-5.46c0.22-0.37,0.3-0.7,0.26-1.1c3.06-3.75,5.68-7.76,6.92-12.5
		c1.67-0.84,2.91-2,2.95-4.04c0.87-0.91,1.78-1.82,2.69-2.73c0.66-0.98,1.35-1.94,2.01-2.88c0.18-0.77,0.33-1.53,0.51-2.3
		c1.42-1.46,3.64-2.12,4.16-4.41c2.84-3.64,5.64-7.25,8.46-10.9c5.36-6.45,6.22-12.1,2.58-18c-3.86-6.22-9.73-7.76-16.58-6.52
		c-50.17,8.89-95.66,28.43-135.93,59.73c-15.26,11.84-29.92,24.34-41.76,39.79c-0.94,2.85-4.12,3.1-5.91,5.28
		c-22,27.15-39.97,56.63-51.96,89.57c-5.79,15.82-11.62,31.6-13.48,48.5c-6.19,25.87-7.76,52.15-6.09,78.61
		c1.16,18.81,3.13,37.57,8.82,55.68c-0.03,6.23,2.44,11.88,4.26,17.6c17.46,54.63,46.9,101.53,90.05,139.57
		c1.97,3.53,5.68,5.17,8.64,7.5c69.46,55.36,148.32,78.79,236.5,67.53c79.29-10.14,144.19-47.59,195.97-108.16
		C981.47,658.37,983.04,652.51,979.61,646.09"/>
	<path class="st5" d="M694.66,434.31c-0.1,3.34-0.76,6.73,0.99,9.88c0.07-1.02,0.16-2.04,0.24-3.07
		C695.43,438.87,696.61,436.31,694.66,434.31"/>
	<path class="st4" d="M822.22,728.4c-2.03,38.17-15.4,72.37-37.76,102.92c-31.97,43.7-74.65,71.3-127.77,82.32
		c-11.28,2.35-22.77,3.92-34.31,3.97c-124.56,0.05-249.08,0.71-373.58-0.3c-46.85-0.36-85.32-21.14-115.26-57.38
		c-16.98-20.58-27.6-44.06-32.38-70.18c-0.66-3.67-0.61-7.47-0.91-11.19c-3.15-6.3-0.92-13.06-1.48-19.57
		c3.05-4.01,0.86-8.64,1.48-12.96c0.05-2.13,0.1-4.26,0.15-6.41c1.17-11.13,4.73-21.7,8.09-32.32c1.62-3.81,3.25-7.57,4.88-11.38
		c0.56-1.07,1.12-2.13,1.62-3.25c2.69-4.27,5.33-8.59,7.98-12.91c3.66-7.37,9.35-13.27,14.58-19.42
		c20.08-23.17,44.78-38.98,74.4-46.95c7.47-4.63,16.77-2.29,24.29-6.45c3.31-5.13,0.92-10.83,1.58-16.21
		c0-22.36,6.71-43.3,15.09-63.57c5.79-14.08,12.91-27.7,22.21-40c9.15-13.32,19.97-25.21,32.32-35.63
		c10.32-9.51,21.5-17.84,34-24.24c10.06-6.56,20.78-11.59,32.37-14.59c9.15-4.77,19.01-6.81,29.12-8.08
		c19.11-5.69,38.68-6,58.24-3.81c4.77,0.56,10.21-1.42,14.63,2.19c9.66-0.06,18.81,2.34,27.5,6.45
		c11.59,2.34,22.61,6.04,32.37,12.96c14.03,5.64,26.33,13.88,37.25,24.29c12.71,8.84,22.62,20.48,32.33,32.37
		c5.18,7.17,10.11,14.48,15.6,21.35c4.12,5.18,10.73,3.96,16.31,4.42c24.86,2.08,48.13,9.6,70.6,19.92c1.12,0.51,1.88,1.89,2.74,2.8
		c28.97,14.99,54.23,34.31,72.73,61.6c4.72,6.76,10.78,12.7,13.01,20.99c3.61,4.98,8.03,9.51,8.14,16.21
		c0.56,1.07,1.07,2.13,1.62,3.2c2.14,5.39,4.32,10.78,6.5,16.16c5.54,12.4,7.47,25.61,9.55,38.87c2.19,11.95,1.73,24.04,1.68,36.13
		C823.7,723.32,824.51,726.22,822.22,728.4"/>
</g>
</svg>
