<?xml version="1.0" encoding="utf-8"?>
<!-- Generator: Adobe Illustrator 24.1.1, SVG Export Plug-In . SVG Version: 6.00 Build 0)  -->
<svg version="1.1" id="Layer_1" xmlns="http://www.w3.org/2000/svg" xmlns:xlink="http://www.w3.org/1999/xlink" x="0px" y="0px"
	 viewBox="0 0 1080 1080" style="enable-background:new 0 0 1080 1080;" xml:space="preserve">
<style type="text/css">
	.st0{fill:#FCCF23;}
	.st1{clip-path:url(#SVGID_5_);fill:url(#SVGID_6_);}
	.st2{fill:#109BD5;}
	.st3{fill:#E7453A;}
	.st4{fill:#FFFFFF;}
	.st5{fill:#F9BB16;}
	.st6{clip-path:url(#SVGID_7_);fill:url(#SVGID_8_);}
	.st7{clip-path:url(#SVGID_9_);fill:url(#SVGID_10_);}
	.st8{clip-path:url(#SVGID_11_);fill:url(#SVGID_12_);}
</style>
<g>
	<path class="st5" d="M978.11,424.18c-2.47-4.66-6.72-5.93-11.73-5.37c-8.49,0.89-17,1.71-25.52,2.58c-0.69,0-1.34,0-2.03,0.03
		c-0.94,0.11-1.9,0.16-2.82,0.24c0.82-0.16,1.69-0.24,2.62-0.24c-3.53,0-7.09-0.03-10.62-0.03c-1.98-0.05-3.96-0.08-5.93-0.13
		c-0.92-0.05-1.9-0.11-2.82-0.16h-0.05c-3.11-1.16-6.42-0.84-9.65-0.94c-3-1.14-6.06-1.42-9.23-0.74c-1.34-1.06-2.82-1.74-4.58-1.34
		c-1.13-1.11-2.55-0.93-3.92-0.9c-1.19-1.01-2.62-0.98-4.04-1.01c-1.18-1.02-2.63-0.92-4.06-0.94c-2.19-1.18-4.56-1.8-7.04-1.95
		c-2.37-1.3-4.85-2.22-7.59-2.16c-2.42-0.95-4.82-1.93-7.24-2.9c-2.79-1.74-5.91-2.77-9.05-3.77c-3.55-1.66-7.14-3.32-10.7-5.01
		c-4.27-2.37-8.54-4.77-12.81-7.16c-1.71-1.48-3.45-2.82-5.87-2.74c-0.64-0.69-1.25-1.37-1.85-2.06c-1.34-2.01-3.76-2.38-5.59-3.72
		c-0.13-0.79-0.69-1.06-1.4-1.16c-1.08-1.33-2.3-2.46-3.98-2.98c-1.03-1.29-2.24-2.38-3.83-3.03c-1.76-1.87-3.6-3.69-5.93-4.9
		c-1.77-1.61-3.51-3.21-5.28-4.82c-1.68-2.03-3.21-4.19-5.9-5.06c-1.09-1.24-2.16-2.5-3.27-3.76c-0.35-1.48-1.42-2.3-2.62-3.09
		c-0.92-1-1.82-2-2.74-3.03c-0.74-1.58-1.76-2.9-3.24-3.85c-1.42-2.16-2.77-4.35-4.8-6.01c-1.48-2.43-2.93-4.9-5.04-6.89
		c-0.98-2.76-3.39-4.53-4.97-6.87c-6.71-12.65-13.62-25.23-18.82-38.62c0,0-0.01,0.01-0.01,0.02c0-0.01,0-0.02,0-0.02
		c-0.47-2.93-1.56-5.67-2.77-8.35c-0.05-0.16-0.13-0.35-0.21-0.51c-0.15-2.11-0.74-4.11-1.79-5.95c-1.64-2.43-0.4-5.59-2.08-8.02
		c0-1.68-0.16-3.32-1.09-4.8c-0.31-1.63-0.66-3.29-0.97-4.93c-0.05-1.76,0.2-3.56-0.9-5.13c-0.16-2.35,0.21-4.8-1.01-6.98
		c-0.12-3.27,0.27-6.57-0.92-9.73c-0.11-6.54-0.21-13.11-0.35-19.64v-1.03c0.05-2.3,0.11-4.61,0.16-6.9
		c0.05-0.98,0.11-1.95,0.16-2.9c-0.03,0-0.05,0.03-0.08,0.03c0.11-0.16,0.19-0.31,0.24-0.47c0.71-1.42,0.55-2.98,0.47-4.51
		c0.05-0.69,0.08-1.37,0.11-2.03c0.63-4.3,1.26-8.57,1.9-12.86c0.87-2.56-0.11-5.44,1.4-7.86c0.95-1.21,0.9-2.61,0.77-4
		c0.93-3.3,1.87-6.59,2.82-9.89c0.79-2.63,1.58-5.25,2.38-7.88c1.16-2.55,2.47-5.06,2.61-7.94c0.5-1.29,0.97-2.55,1.48-3.82
		c1.29-1.09,1.84-2.43,1.74-4.08c0.77-1.25,2.03-2.24,1.66-3.96c1.18-1.05,1.34-2.45,1.34-3.9c2.58-1.16,2.93-3.69,3.67-5.98
		c-0.13-1.74,1.79-2.43,2.03-3.96c0.16-0.26,0.2-0.5,0.18-0.79c2.22-2.71,4.12-5.61,5.01-9.04c1.22-0.61,2.11-1.45,2.14-2.93
		c0.63-0.66,1.29-1.32,1.95-1.98c0.48-0.71,0.98-1.4,1.45-2.08c0.13-0.55,0.24-1.1,0.37-1.66c1.02-1.06,2.63-1.53,3.01-3.19
		c2.06-2.63,4.08-5.24,6.11-7.87c3.87-4.67,4.5-8.76,1.87-13.03c-2.79-4.5-7.04-5.61-11.99-4.72c-36.29,6.43-69.19,20.55-98.31,43.2
		c-11.04,8.57-21.64,17.61-30.21,28.78c-0.69,2.06-2.97,2.24-4.27,3.82c-15.92,19.64-28.91,40.97-37.58,64.79
		c-4.19,11.43-8.41,22.85-9.75,35.08c-4.48,18.72-5.61,37.72-4.4,56.86c0.84,13.6,2.26,27.17,6.37,40.27
		c-0.03,4.51,1.77,8.6,3.09,12.73c12.63,39.51,33.92,73.43,65.13,100.94c1.42,2.56,4.11,3.75,6.25,5.44
		c50.24,40.03,107.27,56.98,171.06,48.84c57.35-7.33,104.29-34.43,141.75-78.23C979.45,433.06,980.58,428.82,978.11,424.18"/>
	<path class="st5" d="M772.01,271c-0.07,2.41-0.55,4.87,0.72,7.14c0.05-0.74,0.11-1.48,0.17-2.22
		C772.57,274.29,773.41,272.44,772.01,271"/>
	<g>
		<defs>
			<path id="SVGID_1_" d="M430.83,229.29c-10.98,1.38-21.67,3.59-31.6,8.76c-12.57,3.26-24.2,8.71-35.13,15.82
				c-13.56,6.96-25.69,16-36.88,26.31c-13.4,11.3-25.15,24.2-35.07,38.64c-10.09,13.36-17.81,28.13-24.1,43.39
				c-9.1,22-16.38,44.72-16.38,68.98c-0.72,5.85,1.88,12.02-1.7,17.58c-8.17,4.53-18.26,1.99-26.36,7.01
				c-32.15,8.66-58.94,25.8-80.72,50.95c-5.68,6.66-11.85,13.06-15.83,21.06c-2.87,4.68-5.73,9.37-8.66,14.01
				c-0.55,1.21-1.16,2.37-1.76,3.52c-1.76,4.14-3.52,8.21-5.29,12.36c-3.65,11.52-7.51,22.98-8.77,35.07
				c-0.05,2.31-0.12,4.63-0.17,6.94c-0.66,4.69,1.72,9.71-1.59,14.06c0.61,7.06-1.82,14.4,1.59,21.23c0.34,4.03,0.28,8.16,1,12.14
				c5.18,28.34,16.7,53.81,35.12,76.15c32.49,39.31,74.22,61.86,125.06,62.24c135.09,1.11,270.18,0.39,405.32,0.34
				c12.52-0.05,24.98-1.77,37.21-4.31c57.62-11.97,103.93-41.9,138.62-89.32c24.26-33.14,38.77-70.24,40.97-111.65
				c2.48-2.38,1.6-5.51,1.66-8.32c0.04-13.12,0.54-26.25-1.82-39.21c-2.26-14.39-4.36-28.72-10.37-42.18
				c-2.37-5.85-4.74-11.69-7.06-17.54c-0.6-1.16-1.16-2.31-1.77-3.48c-0.11-7.27-4.9-12.17-8.81-17.58
				c-2.43-8.99-9-15.44-14.12-22.78c-20.06-29.6-47.47-50.56-78.91-66.82c-0.93-1-1.76-2.48-2.98-3.03
				c-24.36-11.19-49.62-19.36-76.58-21.62c-6.06-0.49-13.23,0.83-17.7-4.8c-5.96-7.44-11.3-15.38-16.93-23.15
				c-10.53-12.91-21.28-25.53-35.07-35.13c-11.85-11.3-25.19-20.23-40.41-26.36c-10.59-7.49-22.56-11.52-35.13-14.05
				c-9.42-4.47-19.35-7.06-29.83-7c-3.3-2.7-7.12-2.52-10.86-2.34c-1.71,0.08-3.4,0.16-5.02-0.04c-7.7-0.85-15.38-1.36-23.05-1.36
				C457.47,223.79,444.04,225.34,430.83,229.29"/>
		</defs>
		<clipPath id="SVGID_5_">
			<use xlink:href="#SVGID_1_"  style="overflow:visible;"/>
		</clipPath>
		
			<linearGradient id="SVGID_6_" gradientUnits="userSpaceOnUse" x1="20.8781" y1="-335.6834" x2="29.7837" y2="-335.6834" gradientTransform="matrix(0 63.2003 63.2003 0 21708.9102 -1095.7189)">
			<stop  offset="0" style="stop-color:#A0B1BA"/>
			<stop  offset="1" style="stop-color:#58707D"/>
		</linearGradient>
		<rect x="99.01" y="223.79" class="st1" width="789.19" height="562.84"/>
	</g>
	<path class="st2" d="M555.37,1003.43L555.37,1003.43c-8.68-5.01-11.66-16.1-6.64-24.79l76.9-133.22
		c5.02-8.68,16.11-11.65,24.79-6.64c8.68,5.01,11.66,16.1,6.65,24.79L580.16,996.8C575.15,1005.47,564.05,1008.44,555.37,1003.43"/>
	<path class="st2" d="M220.47,1003.43L220.47,1003.43c-8.68-5.01-11.66-16.1-6.64-24.79l76.9-133.22
		c5.02-8.68,16.11-11.65,24.79-6.64c8.68,5.01,11.66,16.1,6.65,24.79L245.25,996.8C240.25,1005.47,229.14,1008.44,220.47,1003.43"/>
	<path class="st3" d="M381.47,977.81c-4.42-3.59-4.64-4.58-2.02-9.8c23.66-47.12,47.32-94.24,70.98-141.36
		c0.69-1.36,1.36-2.73,2.4-4.85c-1.83,0-3.08,0-4.32,0c-20.41,0-40.82,0-61.24,0c-0.88,0-1.77,0.02-2.66,0
		c-5.82-0.15-7.97-3.89-5.01-8.91c9.46-16.04,18.98-32.04,28.48-48.06c24.19-40.8,48.44-81.57,72.53-122.44
		c2.25-3.82,4.85-5.37,9.31-5.34c24.29,0.18,48.58,0.08,72.88,0.08c0.22,0,0.44,0,0.67,0c7.44,0.01,9.48,3.42,5.86,9.81
		c-14.65,25.83-29.3,51.66-43.96,77.49c-4.7,8.28-9.4,16.57-14.09,24.87c-0.52,0.93-0.93,1.91-1.63,3.36
		c1.72,0.08,2.99,0.2,4.25,0.2c22.64,0.01,45.26,0.02,67.9-0.01c2.75,0,5.37,0,6.65,3.11c1.2,2.94-0.47,4.82-2.27,6.74
		c-66.11,70.61-132.21,141.24-198.33,211.85c-1.12,1.19-2.46,2.17-3.7,3.25H381.47z"/>
</g>
</svg>
