<?xml version="1.0" encoding="utf-8"?>
<!-- Generator: Adobe Illustrator 24.1.1, SVG Export Plug-In . SVG Version: 6.00 Build 0)  -->
<svg version="1.1" id="Layer_1" xmlns="http://www.w3.org/2000/svg" xmlns:xlink="http://www.w3.org/1999/xlink" x="0px" y="0px"
	 viewBox="0 0 1080 1080" style="enable-background:new 0 0 1080 1080;" xml:space="preserve">
<style type="text/css">
	.st0{fill:#FCCF23;}
	.st1{clip-path:url(#SVGID_5_);fill:url(#SVGID_6_);}
	.st2{fill:#109BD5;}
	.st3{fill:#E7453A;}
	.st4{fill:#FFFFFF;}
	.st5{fill:#F9BB16;}
	.st6{clip-path:url(#SVGID_7_);fill:url(#SVGID_8_);}
	.st7{clip-path:url(#SVGID_9_);fill:url(#SVGID_10_);}
	.st8{clip-path:url(#SVGID_11_);fill:url(#SVGID_12_);}
</style>
<g>
	<path class="st4" d="M905.88,586.02c-2.06,38.68-15.61,73.34-38.27,104.3c-32.4,44.29-75.66,72.26-129.48,83.43
		c-11.44,2.37-23.07,3.97-34.77,4.02c-126.23,0.05-252.42,0.72-378.6-0.31c-47.48-0.37-86.47-21.43-116.81-58.15
		c-17.2-20.85-27.97-44.65-32.81-71.12c-0.66-3.72-0.62-7.57-0.92-11.34c-3.19-6.38-0.93-13.23-1.5-19.83
		c3.09-4.06,0.87-8.75,1.5-13.13c0.05-2.16,0.1-4.32,0.15-6.49c1.19-11.28,4.8-21.99,8.19-32.75c1.65-3.86,3.29-7.67,4.95-11.54
		c0.57-1.08,1.13-2.16,1.65-3.29c2.73-4.33,5.4-8.71,8.09-13.08c3.71-7.47,9.47-13.45,14.78-19.68
		c20.35-23.48,45.38-39.5,75.4-47.58c7.57-4.69,17-2.32,24.62-6.54c3.35-5.2,0.93-10.97,1.6-16.43c0-22.66,6.8-43.88,15.29-64.44
		c5.87-14.26,13.08-28.07,22.51-40.53c9.27-13.5,20.24-25.55,32.75-36.1c10.46-9.63,21.78-18.08,34.46-24.57
		c10.2-6.65,21.06-11.74,32.8-14.79c9.28-4.84,19.27-6.9,29.51-8.19c19.37-5.77,39.2-6.08,59.03-3.86
		c4.84,0.57,10.35-1.44,14.83,2.22c9.79-0.06,19.06,2.37,27.87,6.54c11.74,2.37,22.91,6.13,32.8,13.13
		c14.22,5.72,26.68,14.06,37.75,24.62c12.88,8.96,22.92,20.75,32.76,32.8c5.25,7.26,10.25,14.68,15.81,21.63
		c4.17,5.25,10.87,4.01,16.53,4.48c25.19,2.11,48.78,9.73,71.54,20.19c1.13,0.52,1.9,1.91,2.78,2.83
		c29.36,15.19,54.95,34.77,73.7,62.43c4.79,6.85,10.92,12.87,13.18,21.27c3.66,5.04,8.14,9.63,8.24,16.43
		c0.57,1.08,1.08,2.16,1.65,3.24c2.16,5.46,4.38,10.92,6.59,16.38c5.62,12.57,7.57,25.96,9.68,39.4c2.22,12.11,1.75,24.36,1.7,36.62
		C907.38,580.87,908.2,583.81,905.88,586.02"/>
	<path class="st4" d="M761.99,827.25H287.82c-5.42,0-9.82-4.4-9.82-9.82c0-5.42,4.4-9.82,9.82-9.82h474.18
		c5.42,0,9.82,4.4,9.82,9.82C771.81,822.85,767.41,827.25,761.99,827.25"/>
</g>
</svg>
