<?xml version="1.0" encoding="utf-8"?>
<!-- Generator: Adobe Illustrator 24.1.1, SVG Export Plug-In . SVG Version: 6.00 Build 0)  -->
<svg version="1.1" id="Layer_1" xmlns="http://www.w3.org/2000/svg" xmlns:xlink="http://www.w3.org/1999/xlink" x="0px" y="0px"
	 viewBox="0 0 1080 1080" style="enable-background:new 0 0 1080 1080;" xml:space="preserve">
<style type="text/css">
	.st0{fill:#FCCF23;}
	.st1{clip-path:url(#SVGID_5_);fill:url(#SVGID_6_);}
	.st2{fill:#109BD5;}
	.st3{fill:#E7453A;}
	.st4{fill:#FFFFFF;}
	.st5{fill:#F9BB16;}
	.st6{clip-path:url(#SVGID_7_);fill:url(#SVGID_8_);}
	.st7{clip-path:url(#SVGID_9_);fill:url(#SVGID_10_);}
	.st8{clip-path:url(#SVGID_11_);fill:url(#SVGID_12_);}
</style>
<g>
	<path class="st5" d="M861.17,730.24c-3.55-6.67-9.62-8.49-16.79-7.69c-12.15,1.28-24.33,2.45-36.52,3.69c-0.98,0-1.92,0-2.9,0.03
		c-1.36,0.15-2.72,0.23-4.03,0.34c1.17-0.22,2.41-0.34,3.74-0.34c-5.06,0-10.15-0.03-15.21-0.03c-2.83-0.08-5.65-0.11-8.49-0.19
		c-1.32-0.08-2.72-0.15-4.03-0.23h-0.08c-4.45-1.66-9.2-1.21-13.8-1.36c-4.3-1.62-8.68-2.04-13.2-1.05
		c-1.93-1.51-4.04-2.5-6.57-1.93c-1.62-1.58-3.66-1.32-5.62-1.28c-1.7-1.43-3.74-1.39-5.77-1.43c-1.69-1.47-3.77-1.32-5.81-1.36
		c-3.13-1.7-6.53-2.56-10.07-2.79c-3.4-1.84-6.94-3.17-10.87-3.09c-3.47-1.36-6.9-2.75-10.37-4.15c-4-2.49-8.45-3.96-12.94-5.39
		c-5.09-2.38-10.22-4.75-15.32-7.17c-6.11-3.4-12.23-6.83-18.33-10.26c-2.45-2.11-4.95-4.03-8.41-3.92
		c-0.91-0.98-1.77-1.96-2.64-2.95c-1.93-2.86-5.4-3.4-8-5.31c-0.19-1.13-0.98-1.51-2-1.66c-1.55-1.88-3.28-3.51-5.7-4.26
		c-1.47-1.85-3.2-3.4-5.47-4.34c-2.53-2.67-5.17-5.28-8.49-7.01c-2.53-2.3-5.02-4.6-7.55-6.9c-2.41-2.91-4.6-6-8.45-7.25
		c-1.55-1.77-3.09-3.58-4.68-5.39c-0.49-2.11-2.04-3.28-3.74-4.41c-1.32-1.43-2.6-2.86-3.92-4.34c-1.05-2.26-2.53-4.15-4.64-5.51
		c-2.04-3.09-3.97-6.22-6.87-8.6c-2.11-3.46-4.19-7.01-7.21-9.84c-1.39-3.96-4.86-6.49-7.12-9.84h0.01
		c-9.61-18.12-19.49-36.1-26.93-55.28c-0.01,0.01-0.02,0.03-0.02,0.03c0-0.01,0-0.02,0-0.03c-0.68-4.19-2.22-8.11-3.96-11.95
		c-0.08-0.23-0.19-0.49-0.3-0.72c-0.23-3.01-1.06-5.88-2.56-8.52c-2.34-3.47-0.57-8-2.98-11.47c0-2.41-0.23-4.75-1.55-6.86
		c-0.45-2.34-0.94-4.72-1.39-7.06c-0.08-2.53,0.31-5.09-1.28-7.36c-0.23-3.35,0.3-6.86-1.43-9.99c-0.19-4.68,0.37-9.4-1.32-13.92
		c-0.14-9.36-0.3-18.75-0.48-28.1v-1.47c0.08-3.29,0.15-6.61,0.22-9.89c0.08-1.39,0.15-2.78,0.23-4.14c-0.03,0-0.08,0.03-0.11,0.03
		c0.14-0.23,0.26-0.45,0.34-0.68c1.02-2.04,0.79-4.26,0.68-6.45c0.08-0.98,0.11-1.96,0.14-2.9c0.91-6.15,1.82-12.26,2.72-18.41
		c1.25-3.66-0.14-7.78,2-11.24c1.36-1.74,1.28-3.74,1.09-5.74c1.32-4.71,2.67-9.43,4.03-14.14c1.13-3.77,2.27-7.51,3.4-11.28
		c1.66-3.66,3.55-7.24,3.74-11.35c0.71-1.85,1.39-3.66,2.11-5.47c1.85-1.55,2.64-3.47,2.49-5.85c1.1-1.77,2.9-3.21,2.38-5.66
		c1.7-1.5,1.93-3.51,1.93-5.58c3.69-1.66,4.19-5.28,5.24-8.57c-0.19-2.49,2.56-3.47,2.9-5.65c0.23-0.38,0.31-0.72,0.27-1.14
		c3.17-3.88,5.88-8.03,7.17-12.94c1.73-0.87,3.01-2.07,3.06-4.19c0.9-0.94,1.84-1.88,2.78-2.83c0.68-1.02,1.4-2,2.08-2.98
		c0.19-0.8,0.34-1.59,0.53-2.38c1.47-1.51,3.77-2.19,4.3-4.57c2.94-3.77,5.84-7.51,8.75-11.28c5.54-6.67,6.44-12.52,2.67-18.64
		c-4-6.44-10.07-8.03-17.17-6.75c-51.94,9.2-99.03,29.43-140.71,61.83c-15.8,12.26-30.97,25.2-43.23,41.19
		c-0.98,2.95-4.26,3.21-6.11,5.47c-22.78,28.11-41.38,58.62-53.79,92.73c-5.99,16.38-12.03,32.71-13.96,50.21
		c-6.41,26.79-8.03,53.99-6.3,81.38c1.21,19.47,3.24,38.89,9.13,57.64c-0.03,6.45,2.53,12.3,4.41,18.22
		c18.07,56.55,48.55,105.11,93.22,144.49c2.04,3.66,5.88,5.36,8.94,7.77c71.9,57.31,153.54,81.56,244.83,69.91
		c82.08-10.49,149.27-49.27,202.88-111.97C863.1,742.95,864.72,736.88,861.17,730.24"/>
	<path class="st5" d="M566.18,511c-0.1,3.46-0.79,6.97,1.03,10.23c0.08-1.06,0.16-2.11,0.25-3.18
		C566.98,515.71,568.2,513.07,566.18,511"/>
	<path class="st4" d="M569.93,437.38c-1.48,27.71-11.18,52.55-27.41,74.73c-23.22,31.74-54.22,51.77-92.78,59.79
		c-8.19,1.69-16.53,2.84-24.91,2.88c-90.45,0.03-180.86,0.51-271.27-0.23c-34.03-0.25-61.96-15.35-83.69-41.66
		c-12.33-14.94-20.04-31.99-23.51-50.97c-0.48-2.66-0.44-5.42-0.66-8.12c-2.29-4.58-0.67-9.48-1.07-14.2
		c2.21-2.92,0.62-6.27,1.07-9.42l0.11-4.64c0.85-8.08,3.43-15.76,5.87-23.47c1.18-2.77,2.36-5.5,3.54-8.27
		c0.41-0.77,0.82-1.55,1.18-2.36c1.95-3.1,3.88-6.23,5.8-9.37c2.66-5.35,6.78-9.63,10.59-14.09c14.58-16.83,32.51-28.31,54.03-34.1
		c5.42-3.36,12.17-1.66,17.63-4.69c2.4-3.74,0.66-7.86,1.15-11.78c0-16.24,4.87-31.44,10.96-46.17c4.2-10.22,9.37-20.11,16.12-29.04
		c6.65-9.66,14.51-18.3,23.47-25.87c7.49-6.89,15.6-12.95,24.69-17.6c7.3-4.76,15.1-8.41,23.51-10.59
		c6.64-3.47,13.8-4.95,21.14-5.87c13.88-4.13,28.09-4.36,42.29-2.77c3.47,0.4,7.42-1.04,10.63,1.58c7.01-0.03,13.66,1.7,19.97,4.69
		c8.41,1.7,16.42,4.4,23.51,9.42c10.18,4.09,19.11,10.07,27.05,17.64c9.22,6.42,16.42,14.87,23.47,23.5
		c3.77,5.2,7.34,10.52,11.33,15.5c2.99,3.76,7.79,2.88,11.84,3.21c18.04,1.51,34.94,6.98,51.25,14.47c0.81,0.37,1.37,1.37,2,2.03
		c21.04,10.88,39.38,24.91,52.81,44.73c3.43,4.91,7.83,9.23,9.45,15.24c2.62,3.62,5.83,6.9,5.9,11.78c0.41,0.77,0.78,1.55,1.18,2.33
		c1.55,3.91,3.14,7.82,4.73,11.73c4.02,9.01,5.42,18.6,6.94,28.23c1.59,8.68,1.26,17.46,1.21,26.24
		C571,433.69,571.6,435.8,569.93,437.38"/>
	<path class="st4" d="M1034.38,743.83c-1.48,27.71-11.18,52.55-27.41,74.73c-23.22,31.74-54.22,51.77-92.78,59.79
		c-8.19,1.69-16.53,2.84-24.91,2.88c-90.45,0.03-180.86,0.51-271.27-0.23c-34.03-0.25-61.96-15.35-83.69-41.66
		c-12.33-14.94-20.04-31.99-23.51-50.97c-0.48-2.66-0.44-5.42-0.66-8.12c-2.29-4.58-0.67-9.48-1.07-14.2
		c2.21-2.92,0.62-6.27,1.07-9.42c0.03-1.55,0.07-3.1,0.11-4.64c0.85-8.08,3.43-15.76,5.87-23.47c1.18-2.77,2.36-5.5,3.54-8.26
		c0.41-0.78,0.82-1.55,1.18-2.37c1.95-3.1,3.88-6.23,5.8-9.37c2.66-5.35,6.78-9.63,10.59-14.09c14.58-16.83,32.51-28.31,54.03-34.1
		c5.42-3.36,12.17-1.66,17.63-4.69c2.4-3.74,0.66-7.86,1.15-11.78c0-16.24,4.87-31.44,10.96-46.17c4.2-10.22,9.37-20.11,16.12-29.04
		c6.65-9.66,14.51-18.3,23.47-25.87c7.49-6.89,15.6-12.95,24.69-17.6c7.3-4.76,15.1-8.41,23.51-10.59
		c6.64-3.47,13.8-4.95,21.14-5.87c13.88-4.13,28.09-4.36,42.29-2.77c3.47,0.4,7.42-1.04,10.63,1.58c7.01-0.03,13.66,1.7,19.97,4.69
		c8.41,1.7,16.42,4.4,23.51,9.42c10.18,4.09,19.11,10.07,27.05,17.64c9.22,6.42,16.42,14.87,23.47,23.5
		c3.77,5.2,7.34,10.52,11.33,15.5c2.99,3.76,7.79,2.88,11.84,3.21c18.04,1.51,34.94,6.98,51.25,14.47c0.81,0.37,1.37,1.37,1.99,2.03
		c21.04,10.88,39.38,24.91,52.81,44.73c3.43,4.91,7.83,9.23,9.45,15.24c2.62,3.62,5.83,6.9,5.9,11.78c0.41,0.77,0.78,1.55,1.18,2.33
		c1.55,3.91,3.14,7.82,4.73,11.73c4.02,9.01,5.42,18.6,6.94,28.23c1.59,8.68,1.26,17.46,1.21,26.24
		C1035.45,740.13,1036.05,742.24,1034.38,743.83"/>
</g>
</svg>
