<?xml version="1.0" encoding="utf-8"?>
<!-- Generator: Adobe Illustrator 24.1.1, SVG Export Plug-In . SVG Version: 6.00 Build 0)  -->
<svg version="1.1" id="Layer_1" xmlns="http://www.w3.org/2000/svg" xmlns:xlink="http://www.w3.org/1999/xlink" x="0px" y="0px"
	 viewBox="0 0 1080 1080" style="enable-background:new 0 0 1080 1080;" xml:space="preserve">
<style type="text/css">
	.st0{fill:#FCCF23;}
	.st1{clip-path:url(#SVGID_5_);fill:url(#SVGID_6_);}
	.st2{fill:#109BD5;}
	.st3{fill:#E7453A;}
	.st4{fill:#FFFFFF;}
	.st5{fill:#F9BB16;}
	.st6{clip-path:url(#SVGID_7_);fill:url(#SVGID_8_);}
	.st7{clip-path:url(#SVGID_9_);fill:url(#SVGID_10_);}
	.st8{clip-path:url(#SVGID_11_);fill:url(#SVGID_12_);}
</style>
<g>
	<path class="st4" d="M997.88,504.64c-2.58,48.41-19.53,91.78-47.89,130.52c-40.54,55.43-94.68,90.43-162.04,104.41
		c-14.31,2.97-28.87,4.97-43.51,5.03c-157.97,0.06-315.89,0.9-473.81-0.38c-59.42-0.46-108.21-26.81-146.18-72.78
		c-21.53-26.1-35-55.88-41.06-89c-0.83-4.65-0.77-9.48-1.15-14.19c-3.99-7.99-1.16-16.56-1.87-24.82
		c3.87-5.09,1.09-10.95,1.87-16.43c0.06-2.7,0.12-5.41,0.19-8.12c1.49-14.11,6-27.52,10.26-40.99c2.06-4.83,4.12-9.6,6.19-14.44
		c0.71-1.35,1.41-2.7,2.06-4.12c3.41-5.42,6.76-10.9,10.12-16.37c4.64-9.35,11.86-16.83,18.49-24.63
		c25.46-29.38,56.79-49.44,94.36-59.55c9.48-5.87,21.27-2.9,30.81-8.19c4.19-6.51,1.16-13.73,2.01-20.56
		c0-28.36,8.51-54.92,19.14-80.63c7.34-17.86,16.37-35.14,28.17-50.73c11.6-16.89,25.33-31.97,40.99-45.18
		c13.08-12.05,27.26-22.62,43.12-30.75c12.76-8.32,26.36-14.7,41.05-18.5c11.61-6.05,24.11-8.63,36.93-10.25
		c24.23-7.22,49.05-7.6,73.87-4.84c6.05,0.71,12.95-1.8,18.56,2.78c12.25-0.07,23.85,2.96,34.88,8.19
		c14.7,2.96,28.68,7.67,41.05,16.43c17.8,7.16,33.39,17.6,47.24,30.81c16.12,11.21,28.69,25.97,41,41.05
		c6.57,9.09,12.82,18.37,19.78,27.07c5.22,6.57,13.6,5.02,20.69,5.61c31.53,2.64,61.04,12.18,89.53,25.26
		c1.41,0.65,2.38,2.39,3.47,3.55c36.75,19.01,68.77,43.51,92.24,78.12c5.99,8.57,13.67,16.11,16.5,26.62
		c4.58,6.31,10.18,12.05,10.32,20.56c0.71,1.35,1.35,2.7,2.06,4.06c2.7,6.83,5.48,13.67,8.25,20.5c7.03,15.73,9.48,32.48,12.12,49.3
		c2.78,15.15,2.19,30.49,2.13,45.83C999.76,498.19,1000.79,501.88,997.88,504.64"/>
	<path class="st2" d="M636.95,989.58L636.95,989.58c-10.14-5.86-13.63-18.83-7.76-28.98l89.9-155.73
		c5.87-10.14,18.84-13.62,28.98-7.76c10.15,5.86,13.63,18.83,7.77,28.98l-89.91,155.73C660.07,991.96,647.09,995.43,636.95,989.58"
		/>
	<path class="st2" d="M245.45,989.58L245.45,989.58c-10.14-5.86-13.63-18.83-7.76-28.98l89.9-155.73
		c5.87-10.14,18.84-13.62,28.98-7.76c10.15,5.86,13.63,18.83,7.77,28.98l-89.91,155.73C268.58,991.96,255.59,995.43,245.45,989.58"
		/>
	<path class="st2" d="M443.5,989.58L443.5,989.58c-10.14-5.86-13.63-18.83-7.76-28.98l89.9-155.73
		c5.87-10.14,18.84-13.62,28.98-7.76c10.15,5.86,13.63,18.83,7.77,28.98l-89.91,155.73C466.62,991.96,453.64,995.43,443.5,989.58"/>
</g>
</svg>
