<?xml version="1.0" encoding="utf-8"?>
<!-- Generator: Adobe Illustrator 24.1.1, SVG Export Plug-In . SVG Version: 6.00 Build 0)  -->
<svg version="1.1" id="Layer_1" xmlns="http://www.w3.org/2000/svg" xmlns:xlink="http://www.w3.org/1999/xlink" x="0px" y="0px"
	 viewBox="0 0 1080 1080" style="enable-background:new 0 0 1080 1080;" xml:space="preserve">
<style type="text/css">
	.st0{fill:#FCCF23;}
	.st1{clip-path:url(#SVGID_5_);fill:url(#SVGID_6_);}
	.st2{fill:#109BD5;}
	.st3{fill:#E7453A;}
	.st4{fill:#FFFFFF;}
	.st5{fill:#F9BB16;}
	.st6{clip-path:url(#SVGID_7_);fill:url(#SVGID_8_);}
	.st7{clip-path:url(#SVGID_9_);fill:url(#SVGID_10_);}
	.st8{clip-path:url(#SVGID_11_);fill:url(#SVGID_12_);}
</style>
<g>
	<path class="st0" d="M729.87,540c0,104.86-85.01,189.87-189.87,189.87c-104.87,0-189.88-85.01-189.88-189.87
		S435.13,350.13,540,350.13C644.87,350.13,729.87,435.14,729.87,540"/>
	<path class="st0" d="M539.89,271.96L539.89,271.96c-18.45,0-33.4-14.95-33.4-33.4V122.18c0-18.45,14.95-33.4,33.4-33.4
		c18.45,0,33.4,14.95,33.4,33.4v116.38C573.29,257.01,558.33,271.96,539.89,271.96"/>
	<path class="st0" d="M540.11,991.22L540.11,991.22c-18.45,0-33.4-14.95-33.4-33.4V841.44c0-18.45,14.95-33.4,33.4-33.4
		c18.45,0,33.4,14.95,33.4,33.4v116.38C573.51,976.26,558.56,991.22,540.11,991.22"/>
	<path class="st0" d="M729.45,350.39L729.45,350.39c-13.04-13.04-13.04-34.2,0-47.24l82.29-82.29c13.04-13.04,34.2-13.04,47.24,0
		c13.04,13.04,13.04,34.2,0,47.24l-82.29,82.29C763.65,363.43,742.49,363.43,729.45,350.39"/>
	<path class="st0" d="M222.92,861.04L222.92,861.04c-14.1-14.1-14.1-36.95,0-51.04l82.29-82.29c11.99-11.99,31.44-11.99,43.44,0
		l3.8,3.8c11.99,11.99,11.99,31.44,0,43.44l-86.09,86.09C254.36,873.04,234.92,873.04,222.92,861.04"/>
	<path class="st0" d="M808.04,539.89L808.04,539.89c0-18.45,14.95-33.4,33.4-33.4h116.38c18.45,0,33.4,14.95,33.4,33.4
		c0,18.45-14.95,33.4-33.4,33.4H841.44C822.99,573.29,808.04,558.33,808.04,539.89"/>
	<path class="st0" d="M88.78,540.11L88.78,540.11c0-18.45,14.95-33.4,33.4-33.4h116.38c18.45,0,33.4,14.95,33.4,33.4
		c0,18.45-14.95,33.4-33.4,33.4H122.18C103.73,573.51,88.78,558.56,88.78,540.11"/>
	<path class="st0" d="M729.61,729.45L729.61,729.45c13.04-13.04,34.2-13.04,47.24,0l82.29,82.29c13.04,13.04,13.04,34.2,0,47.24
		s-34.2,13.04-47.24,0l-82.29-82.29C716.57,763.65,716.57,742.49,729.61,729.45"/>
	<path class="st0" d="M220.86,221.02L220.86,221.02c13.04-13.04,34.2-13.04,47.24,0l82.29,82.29c13.04,13.04,13.04,34.2,0,47.24
		s-34.2,13.04-47.24,0l-82.29-82.29C207.82,255.22,207.82,234.06,220.86,221.02"/>
</g>
</svg>
