<?xml version="1.0" encoding="utf-8"?>
<!-- Generator: Adobe Illustrator 24.1.1, SVG Export Plug-In . SVG Version: 6.00 Build 0)  -->
<svg version="1.1" id="Layer_1" xmlns="http://www.w3.org/2000/svg" xmlns:xlink="http://www.w3.org/1999/xlink" x="0px" y="0px"
	 viewBox="0 0 1080 1080" style="enable-background:new 0 0 1080 1080;" xml:space="preserve">
<style type="text/css">
	.st0{fill:#FCCF23;}
	.st1{clip-path:url(#SVGID_5_);fill:url(#SVGID_6_);}
	.st2{fill:#109BD5;}
	.st3{fill:#E7453A;}
	.st4{fill:#FFFFFF;}
	.st5{fill:#F9BB16;}
	.st6{clip-path:url(#SVGID_7_);fill:url(#SVGID_8_);}
	.st7{clip-path:url(#SVGID_9_);fill:url(#SVGID_10_);}
	.st8{clip-path:url(#SVGID_11_);fill:url(#SVGID_12_);}
</style>
<g>
	<path class="st4" d="M666.91,798.45c-3.27-1.41-4.37-3.94-4.26-7.39c0.16-4.88,0.04-9.77,0.04-14.99c-0.64,0.46-1.08,0.75-1.5,1.06
		c-3.95,2.95-7.87,5.96-11.86,8.86c-3.66,2.65-8.33,0.78-9.1-3.63c-0.39-2.28,0.55-4.11,2.39-5.49c6.28-4.73,12.56-9.46,18.88-14.15
		c0.87-0.64,1.22-1.31,1.22-2.41c-0.04-9.67-0.02-19.34-0.02-29.01v-1.74c-1.77,1.05-3.31,1.95-4.84,2.87
		c-7.13,4.29-14.23,8.6-21.39,12.84c-0.99,0.59-1.48,1.23-1.59,2.36c-0.51,5.42-1.07,10.83-1.63,16.24
		c-0.27,2.65-0.49,5.32-0.89,7.96c-0.48,3.06-3.22,5.04-6.23,4.69c-2.91-0.34-5.13-2.85-4.9-5.9c0.37-4.91,0.94-9.81,1.43-14.72
		c0.07-0.7,0.1-1.4,0.17-2.35c-0.71,0.39-1.19,0.65-1.66,0.93c-4.23,2.54-8.43,5.11-12.69,7.59c-3.74,2.18-7.94,0.2-8.67-4.02
		c-0.38-2.19,0.75-4.42,3-5.78c4.22-2.55,8.45-5.07,12.69-7.61c0.43-0.27,0.86-0.55,1.52-0.97c-2.74-1.13-5.3-2.18-7.86-3.23
		c-2.38-0.97-4.77-1.91-7.14-2.88c-3.36-1.38-4.84-4.51-3.6-7.58c1.25-3.08,4.49-4.32,7.83-2.97c7.28,2.94,14.53,5.9,21.82,8.82
		c0.54,0.21,1.37,0.35,1.81,0.09c9.1-5.39,18.16-10.86,27.39-16.41c-0.4-0.31-0.68-0.57-1-0.75c-8.67-5.22-17.35-10.42-26-15.66
		c-0.81-0.49-1.45-0.42-2.27-0.09c-7.21,2.96-14.44,5.88-21.66,8.8c-3.46,1.4-6.69,0.18-7.94-2.98c-1.22-3.07,0.27-6.16,3.67-7.54
		c4.92-2,9.85-3.99,15-6.08c-3.63-2.19-7.05-4.25-10.47-6.32c-1.23-0.74-2.47-1.46-3.71-2.21c-3.09-1.88-4.04-5.2-2.31-8.05
		c1.7-2.78,5.06-3.53,8.09-1.73c4.19,2.49,8.36,5.02,12.54,7.54c0.43,0.26,0.87,0.5,1.64,0.93c-0.18-1.95-0.33-3.64-0.49-5.33
		c-0.37-3.74-0.82-7.46-1.1-11.19c-0.25-3.58,1.84-6.08,5.17-6.44c2.94-0.31,5.65,1.92,6.07,5.31c0.67,5.46,1.14,10.94,1.7,16.4
		c0.27,2.61,0.52,5.21,0.86,7.8c0.06,0.47,0.43,1.04,0.83,1.29c8.7,5.28,17.41,10.5,26.13,15.73c0.13,0.08,0.27,0.12,0.57,0.24
		c0.04-0.55,0.11-1.02,0.11-1.5c0-9.72-0.02-19.45,0.02-29.16c0-1.02-0.3-1.67-1.14-2.29c-6.32-4.69-12.59-9.43-18.89-14.14
		c-1.83-1.37-2.83-3.18-2.47-5.46c0.68-4.42,5.39-6.41,9.03-3.78c4.04,2.92,7.99,5.96,11.99,8.94c0.4,0.29,0.82,0.56,1.46,0.99
		v-1.89c0-4.84-0.04-9.67,0.02-14.51c0.04-3.14,2.06-5.56,4.8-5.93c2.84-0.38,5.42,1.17,6.26,3.86c0.24,0.76,0.27,1.62,0.28,2.43
		c0.02,4.78,0.01,9.57,0.01,14.35v1.83c1.1-0.81,1.95-1.43,2.79-2.06c3.53-2.65,7.05-5.34,10.61-7.95c2.45-1.79,5.42-1.61,7.47,0.36
		c1.88,1.81,2.31,4.91,0.84,7.07c-0.56,0.82-1.37,1.53-2.17,2.14c-6.15,4.66-12.33,9.25-18.47,13.92c-0.49,0.37-1.01,1.11-1.02,1.68
		c-0.05,10.23-0.03,20.47-0.02,30.7c0,0.09,0.06,0.18,0.13,0.43c0.46-0.24,0.89-0.43,1.31-0.68c8.28-4.97,16.55-9.95,24.84-14.9
		c0.95-0.57,1.44-1.14,1.55-2.34c0.71-7.77,1.58-15.53,2.36-23.3c0.33-3.34,2.87-5.63,6.09-5.42c3.21,0.21,5.53,2.8,5.26,6.19
		c-0.35,4.45-0.9,8.89-1.35,13.34c-0.09,0.97-0.17,1.93-0.28,3.23c0.68-0.37,1.15-0.6,1.59-0.86c4.15-2.49,8.27-4.98,12.42-7.46
		c3.13-1.88,6.49-1.21,8.22,1.59c1.77,2.88,0.81,6.19-2.4,8.14c-4.13,2.5-8.27,4.98-12.4,7.47c-0.47,0.28-0.93,0.6-1.55,1
		c5.24,2.14,10.32,4.15,15.35,6.3c4.15,1.77,4.91,6.93,1.49,9.67c-1.87,1.49-3.94,1.56-6.1,0.68c-7.12-2.9-14.26-5.78-21.36-8.72
		c-1.15-0.48-2.01-0.46-3.11,0.21c-8.32,5.08-16.7,10.08-25.06,15.11c-0.43,0.26-0.86,0.53-1.44,0.9c0.4,0.31,0.69,0.57,1.01,0.76
		c8.62,5.19,17.25,10.37,25.85,15.59c0.86,0.53,1.54,0.47,2.41,0.11c7.21-2.96,14.43-5.89,21.66-8.81c3.45-1.41,6.7-0.19,7.94,2.94
		c1.22,3.06-0.24,6.17-3.63,7.57c-4.93,2.03-9.88,4.01-15.03,6.1c0.61,0.39,1.05,0.7,1.52,0.97c4.35,2.63,8.73,5.21,13.05,7.88
		c2.32,1.44,3.21,4.11,2.37,6.58c-0.84,2.49-3.2,4.11-5.84,3.82c-1.03-0.12-2.08-0.57-2.99-1.1c-4.12-2.41-8.2-4.9-12.29-7.36
		c-0.43-0.26-0.88-0.49-1.52-0.86c0,0.8-0.06,1.43,0.01,2.06c0.46,4.49,0.93,8.99,1.45,13.47c0.28,2.48-0.2,4.64-2.3,6.15
		c-1.77,1.27-3.74,1.41-5.71,0.52c-1.94-0.86-3.03-2.48-3.25-4.55c-0.79-7.3-1.49-14.61-2.23-21.91c-0.09-0.87-0.15-1.74-0.32-2.6
		c-0.06-0.35-0.3-0.78-0.59-0.95c-8.89-5.35-17.79-10.68-26.68-16.01c-0.07-0.04-0.19,0.01-0.45,0.02v1.33
		c0,9.72,0.02,19.44-0.02,29.16c-0.01,1.11,0.38,1.75,1.26,2.39c6.27,4.66,12.51,9.37,18.76,14.04c2.17,1.63,3,3.74,2.39,6.36
		c-0.51,2.21-2.47,3.79-4.89,4.09c-1.68,0.2-3.11-0.42-4.42-1.41c-3.81-2.88-7.64-5.75-11.47-8.61c-0.43-0.33-0.89-0.63-1.6-1.12
		v2.65c0,4.11-0.15,8.23,0.05,12.34c0.16,3.45-0.88,5.99-4.11,7.46H666.91z"/>
	<path class="st4" d="M536.04,956.46c-3.27-1.41-4.36-3.94-4.26-7.39c0.16-4.88,0.04-9.77,0.04-14.99c-0.64,0.46-1.08,0.75-1.5,1.06
		c-3.95,2.95-7.87,5.96-11.86,8.86c-3.66,2.65-8.34,0.78-9.1-3.63c-0.39-2.28,0.55-4.11,2.39-5.49c6.28-4.73,12.56-9.46,18.88-14.15
		c0.87-0.64,1.22-1.31,1.22-2.41c-0.04-9.67-0.02-19.34-0.02-29.01v-1.74c-1.77,1.05-3.31,1.95-4.84,2.87
		c-7.13,4.29-14.23,8.6-21.39,12.84c-0.99,0.59-1.48,1.23-1.59,2.36c-0.51,5.42-1.07,10.83-1.63,16.24
		c-0.27,2.65-0.49,5.32-0.89,7.96c-0.48,3.06-3.22,5.04-6.23,4.69c-2.91-0.34-5.13-2.85-4.9-5.9c0.37-4.91,0.94-9.81,1.43-14.72
		c0.07-0.7,0.1-1.4,0.17-2.35c-0.71,0.39-1.19,0.65-1.66,0.93c-4.23,2.54-8.43,5.11-12.69,7.59c-3.74,2.18-7.94,0.2-8.67-4.02
		c-0.38-2.19,0.75-4.42,3-5.78c4.22-2.55,8.45-5.07,12.69-7.61c0.43-0.27,0.86-0.55,1.52-0.97c-2.74-1.13-5.3-2.18-7.86-3.23
		c-2.38-0.97-4.77-1.91-7.14-2.88c-3.36-1.38-4.84-4.51-3.6-7.58c1.25-3.08,4.49-4.32,7.83-2.97c7.28,2.94,14.53,5.9,21.82,8.82
		c0.54,0.21,1.37,0.35,1.81,0.09c9.1-5.39,18.16-10.86,27.39-16.41c-0.4-0.31-0.68-0.57-1-0.75c-8.67-5.22-17.35-10.42-26-15.66
		c-0.81-0.49-1.45-0.42-2.27-0.09c-7.21,2.96-14.44,5.88-21.66,8.8c-3.46,1.4-6.69,0.18-7.94-2.98c-1.22-3.07,0.27-6.16,3.67-7.54
		c4.92-2,9.85-3.99,15-6.08c-3.63-2.19-7.05-4.25-10.47-6.32c-1.23-0.74-2.47-1.46-3.71-2.21c-3.09-1.88-4.04-5.2-2.31-8.05
		c1.7-2.78,5.06-3.53,8.09-1.73c4.19,2.49,8.36,5.02,12.54,7.54c0.43,0.26,0.87,0.5,1.64,0.93c-0.18-1.95-0.33-3.64-0.49-5.33
		c-0.37-3.74-0.83-7.46-1.1-11.19c-0.25-3.58,1.84-6.08,5.17-6.44c2.94-0.31,5.65,1.92,6.07,5.31c0.67,5.46,1.14,10.94,1.7,16.4
		c0.27,2.61,0.52,5.21,0.86,7.8c0.06,0.47,0.43,1.04,0.83,1.29c8.7,5.28,17.41,10.5,26.13,15.73c0.13,0.08,0.27,0.12,0.57,0.24
		c0.04-0.55,0.11-1.02,0.11-1.5c0-9.72-0.02-19.45,0.02-29.16c0-1.02-0.3-1.67-1.14-2.29c-6.32-4.69-12.59-9.43-18.89-14.14
		c-1.83-1.37-2.83-3.17-2.47-5.46c0.68-4.42,5.39-6.41,9.03-3.78c4.04,2.92,7.99,5.96,11.99,8.94c0.4,0.29,0.82,0.56,1.46,0.99
		v-1.89c0-4.84-0.04-9.67,0.02-14.51c0.04-3.14,2.06-5.56,4.8-5.93c2.84-0.38,5.42,1.17,6.26,3.86c0.24,0.76,0.27,1.62,0.28,2.43
		c0.02,4.78,0.01,9.57,0.01,14.35v1.83c1.1-0.81,1.95-1.43,2.79-2.06c3.53-2.65,7.05-5.34,10.61-7.95c2.45-1.79,5.42-1.61,7.47,0.36
		c1.88,1.81,2.31,4.91,0.84,7.07c-0.56,0.82-1.37,1.53-2.17,2.14c-6.15,4.66-12.33,9.25-18.47,13.92c-0.49,0.37-1.01,1.11-1.02,1.68
		c-0.05,10.23-0.03,20.47-0.02,30.7c0,0.09,0.06,0.18,0.13,0.43c0.46-0.24,0.89-0.43,1.31-0.68c8.28-4.97,16.55-9.95,24.84-14.9
		c0.95-0.57,1.44-1.14,1.55-2.34c0.71-7.77,1.58-15.53,2.36-23.3c0.33-3.34,2.87-5.63,6.09-5.42c3.21,0.21,5.53,2.8,5.26,6.19
		c-0.35,4.45-0.9,8.89-1.35,13.34c-0.09,0.97-0.17,1.93-0.28,3.23c0.68-0.37,1.15-0.6,1.59-0.86c4.15-2.49,8.27-4.98,12.42-7.46
		c3.13-1.88,6.49-1.21,8.22,1.59c1.77,2.88,0.81,6.19-2.4,8.14c-4.13,2.5-8.27,4.98-12.4,7.47c-0.48,0.28-0.93,0.6-1.55,1
		c5.24,2.14,10.32,4.15,15.35,6.3c4.15,1.77,4.91,6.93,1.49,9.67c-1.87,1.49-3.94,1.56-6.1,0.68c-7.12-2.9-14.26-5.78-21.36-8.72
		c-1.15-0.48-2.01-0.46-3.11,0.21c-8.32,5.08-16.7,10.08-25.06,15.11c-0.44,0.26-0.86,0.53-1.44,0.9c0.4,0.31,0.69,0.57,1.01,0.76
		c8.62,5.19,17.25,10.37,25.85,15.59c0.86,0.53,1.54,0.47,2.41,0.11c7.21-2.96,14.43-5.89,21.66-8.81c3.45-1.41,6.7-0.19,7.94,2.94
		c1.22,3.06-0.24,6.17-3.63,7.57c-4.93,2.03-9.88,4.01-15.03,6.1c0.61,0.39,1.05,0.7,1.52,0.97c4.35,2.63,8.73,5.21,13.05,7.88
		c2.32,1.44,3.21,4.11,2.37,6.58c-0.84,2.49-3.2,4.11-5.84,3.82c-1.03-0.12-2.08-0.57-2.99-1.1c-4.12-2.41-8.2-4.9-12.29-7.36
		c-0.43-0.26-0.88-0.49-1.52-0.86c0,0.8-0.06,1.43,0.01,2.06c0.46,4.49,0.93,8.99,1.45,13.47c0.28,2.48-0.2,4.64-2.3,6.15
		c-1.77,1.27-3.74,1.41-5.71,0.52c-1.94-0.86-3.03-2.48-3.25-4.55c-0.79-7.3-1.49-14.61-2.23-21.91c-0.09-0.87-0.16-1.74-0.32-2.6
		c-0.06-0.35-0.3-0.78-0.59-0.95c-8.89-5.35-17.79-10.68-26.68-16.01c-0.07-0.04-0.19,0.01-0.45,0.02v1.33
		c0,9.72,0.02,19.44-0.02,29.16c-0.01,1.11,0.38,1.75,1.26,2.39c6.27,4.66,12.51,9.37,18.76,14.04c2.17,1.62,3,3.74,2.39,6.36
		c-0.51,2.21-2.47,3.79-4.89,4.09c-1.68,0.2-3.11-0.42-4.42-1.41c-3.81-2.88-7.64-5.75-11.47-8.61c-0.43-0.33-0.89-0.63-1.6-1.12
		v2.65c0,4.11-0.15,8.23,0.05,12.34c0.16,3.45-0.88,5.99-4.11,7.46H536.04z"/>
	<path class="st4" d="M411.06,798.45c-3.27-1.41-4.36-3.94-4.26-7.39c0.16-4.88,0.04-9.77,0.04-14.99c-0.64,0.46-1.08,0.75-1.5,1.06
		c-3.95,2.95-7.87,5.96-11.86,8.86c-3.66,2.65-8.33,0.78-9.1-3.63c-0.39-2.28,0.55-4.11,2.39-5.49c6.28-4.73,12.56-9.46,18.88-14.15
		c0.87-0.64,1.22-1.31,1.22-2.41c-0.04-9.67-0.02-19.34-0.02-29.01v-1.74c-1.77,1.05-3.31,1.95-4.84,2.87
		c-7.13,4.29-14.23,8.6-21.39,12.84c-0.99,0.59-1.48,1.23-1.59,2.36c-0.51,5.42-1.07,10.83-1.63,16.24
		c-0.27,2.65-0.49,5.32-0.89,7.96c-0.48,3.06-3.22,5.04-6.23,4.69c-2.91-0.34-5.13-2.85-4.9-5.9c0.37-4.91,0.94-9.81,1.43-14.72
		c0.07-0.7,0.1-1.4,0.17-2.35c-0.71,0.39-1.19,0.65-1.66,0.93c-4.23,2.54-8.43,5.11-12.69,7.59c-3.74,2.18-7.94,0.2-8.67-4.02
		c-0.38-2.19,0.75-4.42,3-5.78c4.22-2.55,8.45-5.07,12.69-7.61c0.43-0.27,0.86-0.55,1.52-0.97c-2.74-1.13-5.3-2.18-7.86-3.23
		c-2.38-0.97-4.77-1.91-7.14-2.88c-3.36-1.38-4.84-4.51-3.6-7.58c1.25-3.08,4.49-4.32,7.83-2.97c7.28,2.94,14.53,5.9,21.82,8.82
		c0.54,0.21,1.37,0.35,1.81,0.09c9.1-5.39,18.16-10.86,27.39-16.41c-0.4-0.31-0.68-0.57-1-0.75c-8.67-5.22-17.35-10.42-26-15.66
		c-0.81-0.49-1.45-0.42-2.27-0.09c-7.21,2.96-14.44,5.88-21.66,8.8c-3.46,1.4-6.69,0.18-7.94-2.98c-1.22-3.07,0.27-6.16,3.67-7.54
		c4.92-2,9.85-3.99,15-6.08c-3.63-2.19-7.05-4.25-10.47-6.32c-1.23-0.74-2.47-1.46-3.71-2.21c-3.09-1.88-4.04-5.2-2.31-8.05
		c1.7-2.78,5.06-3.53,8.09-1.73c4.19,2.49,8.36,5.02,12.54,7.54c0.43,0.26,0.87,0.5,1.64,0.93c-0.18-1.95-0.33-3.64-0.49-5.33
		c-0.37-3.74-0.82-7.46-1.1-11.19c-0.25-3.58,1.84-6.08,5.17-6.44c2.94-0.31,5.65,1.92,6.07,5.31c0.67,5.46,1.14,10.94,1.7,16.4
		c0.27,2.61,0.52,5.21,0.86,7.8c0.06,0.47,0.43,1.04,0.83,1.29c8.7,5.28,17.41,10.5,26.13,15.73c0.13,0.08,0.27,0.12,0.57,0.24
		c0.04-0.55,0.11-1.02,0.11-1.5c0-9.72-0.02-19.45,0.02-29.16c0-1.02-0.3-1.67-1.14-2.29c-6.32-4.69-12.59-9.43-18.89-14.14
		c-1.83-1.37-2.83-3.18-2.47-5.46c0.68-4.42,5.39-6.41,9.03-3.78c4.04,2.92,7.99,5.96,11.99,8.94c0.4,0.29,0.82,0.56,1.46,0.99
		v-1.89c0-4.84-0.04-9.67,0.02-14.51c0.04-3.14,2.06-5.56,4.8-5.93c2.84-0.38,5.42,1.17,6.26,3.86c0.24,0.76,0.27,1.62,0.28,2.43
		c0.02,4.78,0.01,9.57,0.01,14.35v1.83c1.1-0.81,1.95-1.43,2.79-2.06c3.53-2.65,7.05-5.34,10.61-7.95c2.45-1.79,5.42-1.61,7.47,0.36
		c1.88,1.81,2.31,4.91,0.84,7.07c-0.56,0.82-1.37,1.53-2.17,2.14c-6.15,4.66-12.33,9.25-18.47,13.92c-0.49,0.37-1.01,1.11-1.02,1.68
		c-0.05,10.23-0.03,20.47-0.02,30.7c0,0.09,0.06,0.18,0.13,0.43c0.46-0.24,0.89-0.43,1.31-0.68c8.28-4.97,16.55-9.95,24.84-14.9
		c0.95-0.57,1.44-1.14,1.55-2.34c0.71-7.77,1.58-15.53,2.36-23.3c0.33-3.34,2.87-5.63,6.09-5.42c3.21,0.21,5.53,2.8,5.26,6.19
		c-0.35,4.45-0.9,8.89-1.35,13.34c-0.09,0.97-0.17,1.93-0.28,3.23c0.68-0.37,1.15-0.6,1.59-0.86c4.15-2.49,8.27-4.98,12.42-7.46
		c3.13-1.88,6.49-1.21,8.22,1.59c1.77,2.88,0.81,6.19-2.4,8.14c-4.13,2.5-8.27,4.98-12.4,7.47c-0.47,0.28-0.93,0.6-1.55,1
		c5.24,2.14,10.32,4.15,15.35,6.3c4.15,1.77,4.91,6.93,1.49,9.67c-1.87,1.49-3.94,1.56-6.1,0.68c-7.12-2.9-14.26-5.78-21.36-8.72
		c-1.15-0.48-2.01-0.46-3.11,0.21c-8.32,5.08-16.7,10.08-25.06,15.11c-0.43,0.26-0.86,0.53-1.44,0.9c0.4,0.31,0.69,0.57,1.01,0.76
		c8.62,5.19,17.25,10.37,25.85,15.59c0.86,0.53,1.54,0.47,2.41,0.11c7.21-2.96,14.43-5.89,21.66-8.81c3.45-1.41,6.7-0.19,7.94,2.94
		c1.22,3.06-0.24,6.17-3.63,7.57c-4.93,2.03-9.88,4.01-15.03,6.1c0.61,0.39,1.05,0.7,1.52,0.97c4.35,2.63,8.73,5.21,13.05,7.88
		c2.32,1.44,3.21,4.11,2.37,6.58c-0.84,2.49-3.2,4.11-5.84,3.82c-1.03-0.12-2.08-0.57-2.99-1.1c-4.12-2.41-8.2-4.9-12.29-7.36
		c-0.43-0.26-0.88-0.49-1.52-0.86c0,0.8-0.06,1.43,0.01,2.06c0.46,4.49,0.93,8.99,1.45,13.47c0.28,2.48-0.2,4.64-2.3,6.15
		c-1.77,1.27-3.74,1.41-5.71,0.52c-1.94-0.86-3.03-2.48-3.25-4.55c-0.79-7.3-1.49-14.61-2.23-21.91c-0.09-0.87-0.15-1.74-0.32-2.6
		c-0.06-0.35-0.3-0.78-0.59-0.95c-8.89-5.35-17.79-10.68-26.68-16.01c-0.07-0.04-0.19,0.01-0.45,0.02v1.33
		c0,9.72,0.02,19.44-0.02,29.16c-0.01,1.11,0.38,1.75,1.26,2.39c6.27,4.66,12.51,9.37,18.76,14.04c2.17,1.63,3,3.74,2.39,6.36
		c-0.51,2.21-2.47,3.79-4.89,4.09c-1.68,0.2-3.11-0.42-4.42-1.41c-3.81-2.88-7.64-5.75-11.47-8.61c-0.43-0.33-0.89-0.63-1.6-1.12
		v2.65c0,4.11-0.15,8.23,0.05,12.34c0.16,3.45-0.88,5.99-4.11,7.46H411.06z"/>
	<path class="st4" d="M885.59,438.32c-1.95,36.54-14.74,69.27-36.14,98.51c-30.6,41.83-71.46,68.25-122.3,78.8
		c-10.8,2.25-21.79,3.75-32.84,3.8c-119.23,0.05-238.42,0.68-357.6-0.29c-44.85-0.35-81.67-20.24-110.33-54.93
		c-16.25-19.7-26.42-42.17-30.99-67.17c-0.63-3.51-0.58-7.15-0.87-10.71c-3.01-6.03-0.88-12.5-1.41-18.73
		c2.92-3.84,0.82-8.27,1.41-12.4c0.05-2.04,0.09-4.08,0.14-6.13c1.12-10.65,4.53-20.77,7.74-30.94c1.55-3.64,3.11-7.25,4.67-10.9
		c0.53-1.02,1.07-2.04,1.55-3.11c2.57-4.09,5.1-8.23,7.64-12.36c3.5-7.06,8.95-12.7,13.96-18.59
		c19.22-22.18,42.86-37.31,71.22-44.94c7.15-4.43,16.05-2.19,23.25-6.18c3.16-4.91,0.88-10.36,1.52-15.52
		c0-21.41,6.42-41.45,14.44-60.86c5.54-13.47,12.36-26.51,21.26-38.28c8.75-12.75,19.12-24.13,30.94-34.1
		c9.88-9.1,20.58-17.07,32.55-23.21c9.63-6.28,19.89-11.09,30.98-13.97c8.76-4.57,18.2-6.52,27.88-7.73
		c18.29-5.45,37.02-5.74,55.75-3.65c4.57,0.53,9.77-1.36,14,2.1c9.25-0.05,18,2.24,26.32,6.18c11.09,2.24,21.64,5.79,30.98,12.4
		c13.43,5.4,25.2,13.28,35.66,23.25c12.17,8.46,21.65,19.6,30.95,30.99c4.96,6.86,9.68,13.86,14.93,20.43
		c3.94,4.96,10.27,3.79,15.61,4.23c23.79,1.99,46.07,9.19,67.58,19.07c1.07,0.49,1.8,1.81,2.62,2.68
		c27.74,14.35,51.91,32.84,69.62,58.96c4.52,6.47,10.32,12.16,12.45,20.09c3.45,4.77,7.69,9.1,7.79,15.52
		c0.53,1.02,1.02,2.04,1.55,3.06c2.04,5.16,4.14,10.32,6.23,15.47c5.31,11.87,7.15,24.52,9.15,37.21
		c2.1,11.44,1.66,23.01,1.61,34.59C887,433.45,887.78,436.23,885.59,438.32"/>
</g>
</svg>
