<?xml version="1.0" encoding="utf-8"?>
<!-- Generator: Adobe Illustrator 24.1.1, SVG Export Plug-In . SVG Version: 6.00 Build 0)  -->
<svg version="1.1" id="Layer_1" xmlns="http://www.w3.org/2000/svg" xmlns:xlink="http://www.w3.org/1999/xlink" x="0px" y="0px"
	 viewBox="0 0 1080 1080" style="enable-background:new 0 0 1080 1080;" xml:space="preserve">
<style type="text/css">
	.st0{fill:#FCCF23;}
	.st1{clip-path:url(#SVGID_5_);fill:url(#SVGID_6_);}
	.st2{fill:#109BD5;}
	.st3{fill:#E7453A;}
	.st4{fill:#FFFFFF;}
	.st5{fill:#F9BB16;}
	.st6{clip-path:url(#SVGID_7_);fill:url(#SVGID_8_);}
	.st7{clip-path:url(#SVGID_9_);fill:url(#SVGID_10_);}
	.st8{clip-path:url(#SVGID_11_);fill:url(#SVGID_12_);}
</style>
<g>
	<path class="st4" d="M777.41,647.14c-12.93-7.37-26.98-10.66-41.71-11.42c-4.84-2.64-10.13-1.63-15.21-1.63
		c-168.03,0.01-336.05,0.1-504.08,0.15c-5.21,0-10.34,0.08-15.2,2.28c-10.62,3.36-15.38,11.42-15.38,21.75
		c0,10.33,4.77,18.37,15.39,21.74c11.63,3.89,23.49,2.25,35.32,1.57v0.01c4.4,0.23,8.8,0.65,13.21,0.66
		c83.3,0.08,166.6,0.15,249.9,0.16c77.77,0,155.53-0.07,233.3-0.11c13.7,1.39,25.88,7.02,37.74,13.53
		c12.04,9.99,22.48,21.33,26.52,36.87c8.24,31.8-2.06,57.59-26.6,78.42c-18.49,11.47-38.4,15.12-59.74,10.9
		c-18.18-7.53-36.26-15.21-44.76-35.09c-3.96-11.06-7.34-22.21-8.13-34.08c-1-14.87-10.49-23.96-23.78-23.58
		c-13.56,0.39-23.5,10.86-22.93,25.72c1.51,39.57,17.84,71.43,50.66,94.31c14.64,10.64,30.6,17.98,48.89,19.43
		c23.23,5.15,45.31,1.54,66.49-8.78c16.81-6.46,30.61-16.92,41.6-31.14c37.56-47.96,38.13-102.28-0.09-150.46
		C808.13,663.8,793.9,653.96,777.41,647.14"/>
	<path class="st4" d="M994.87,333.81c-8.72-9.07-19.53-14.79-31.12-19.2c-10.25-5.42-21.05-8.86-32.75-8.96
		c-16.39-4.24-32.02-1.27-47.32,4.91c-18.54,4.67-33.59,14.97-46.45,28.81c-23.6,22.3-34.58,50.43-37.03,82.12
		c-0.93,12.06,8.46,22.09,20.18,23.8c11.59,1.69,21.04-4.82,25.34-17.47c0.35-4.3-0.02-8.81,1.18-12.85
		c6.88-22.97,19.06-42.31,39.65-55.57c14.39-7.88,29.99-8.28,45.78-7.35c-1.61-0.06-3.04-0.24-4.32-0.52
		c1.33,0.17,2.69,0.33,4.32,0.51c9.55,2.31,18.18,6.75,26.72,11.4c17.35,13.87,27.34,31.96,30.84,53.78v0.01c0,3.36,0,6.71,0,10.07
		c-0.53,1.27-0.72,2.54-0.74,3.81c-4.25,22.8-17.22,39.8-36.68,52.48c-12.21,4.47-24.33,9.38-37.72,8.82
		c-2.21-0.11-4.41-0.33-6.62-0.33c-278.19,0.09-556.38,0.18-834.56,0.37c-4.37,0-8.89,0.49-13.05,1.75
		c-14.87,4.49-21.17,20.24-13.43,33.71c7.81,13.6,20.79,13.37,34.06,11.86c3.3,0.23,6.6,0.65,9.91,0.65
		c273.3,0.14,546.6,0.24,819.91,0.26c5.06,0,10.37,1.07,15.16-1.75c9.93-0.43,19.57-2.14,28.58-6.59
		c15.04-6.39,31.14-10.97,41.72-24.85c13.61-9.58,22.5-22.83,29.53-37.6C1044.97,429.88,1039.34,369.3,994.87,333.81"/>
	<path class="st4" d="M207.96,445.31c7.27,0.52,14.63-0.08,21.95-0.17h39.9c15.51,0,31.02,0,46.53,0c13.29,0,26.59,0,39.9,0
		c20.69,0,41.37,0,62.05,0c35.46,0,70.92,0,106.38,0c23.63,0,47.27,0,70.9,0c18.5,0.02,37.07,2.18,55.4-2.08
		c16.12-2.2,31.2-7.16,44.55-16.71h0.01c7.52-3.89,14.15-9,20.43-14.64c54.81-49.23,46.34-145.05-16.07-181.56
		c-11.17-10.51-25.85-13.07-39.71-17.5c-17.17-5.48-34.28-4.49-51.36,0.42c-16.73,3.35-31.43,10.77-44.25,21.97
		c-30.42,23.09-44.84,54.69-48.09,91.89c-0.99,11.33,8.4,21.82,19.35,23.41c12.87,1.87,23.68-5.14,26.65-17.62
		c2.46-10.33,4.55-20.77,6.8-31.15c8.01-18.46,22.91-30.05,39.67-39.78c14.49-4.97,29.23-6.31,44.25-2.81
		c18.71,6.28,32.99,18.25,44.05,34.34c11.33,24.28,11.4,48.2-2.22,71.71c-12.08,15.47-27.84,25.56-46.27,31.79
		c-17.66,2.48-35.48,1.18-53.19,2.17c-23.63,0-47.28,0-70.92,0c-35.46,0-70.92,0-106.38,0c-20.69,0-41.37,0-62.05,0
		c-13.3,0-26.6,0-39.9,0h-46.53h-39.9c-6.95-0.11-13.92-0.52-20.85-0.27c-13.9,0.51-23.19,9.67-23.39,22.63
		C185.47,434.02,194.75,444.37,207.96,445.31"/>
</g>
</svg>
