<?xml version="1.0" encoding="utf-8"?>
<!-- Generator: Adobe Illustrator 24.1.1, SVG Export Plug-In . SVG Version: 6.00 Build 0)  -->
<svg version="1.1" id="Layer_1" xmlns="http://www.w3.org/2000/svg" xmlns:xlink="http://www.w3.org/1999/xlink" x="0px" y="0px"
	 viewBox="0 0 1080 1080" style="enable-background:new 0 0 1080 1080;" xml:space="preserve">
<style type="text/css">
	.st0{fill:#FCCF23;}
	.st1{clip-path:url(#SVGID_5_);fill:url(#SVGID_6_);}
	.st2{fill:#109BD5;}
	.st3{fill:#E7453A;}
	.st4{fill:#FFFFFF;}
	.st5{fill:#F9BB16;}
	.st6{clip-path:url(#SVGID_7_);fill:url(#SVGID_8_);}
	.st7{clip-path:url(#SVGID_9_);fill:url(#SVGID_10_);}
	.st8{clip-path:url(#SVGID_11_);fill:url(#SVGID_12_);}
</style>
<g>
	<path class="st0" d="M701.4,542.46c0,87.59-71.01,158.6-158.61,158.6c-87.6,0-158.61-71.01-158.61-158.6s71.01-158.6,158.61-158.6
		C630.39,383.86,701.4,454.87,701.4,542.46"/>
	<path class="st0" d="M547.19,318.56h-8.99c-12.93,0-23.41-10.48-23.41-23.41v-106.2c0-12.93,10.48-23.41,23.41-23.41h8.99
		c12.93,0,23.41,10.48,23.41,23.41v106.2C570.6,308.08,560.12,318.56,547.19,318.56"/>
	<path class="st0" d="M542.88,919.38L542.88,919.38c-15.41,0-27.9-12.49-27.9-27.9v-97.22c0-15.41,12.49-27.9,27.9-27.9
		c15.41,0,27.9,12.49,27.9,27.9v97.22C570.78,906.89,558.29,919.38,542.88,919.38"/>
	<path class="st0" d="M701.04,384.07L701.04,384.07c-10.9-10.89-10.9-28.57,0-39.46l68.74-68.74c10.89-10.89,28.57-10.89,39.46,0
		c10.89,10.89,10.89,28.57,0,39.46l-68.74,68.74C729.61,394.97,711.94,394.97,701.04,384.07"/>
	<path class="st0" d="M279.51,812.23l-3.18-3.18c-10.89-10.89-10.89-28.57,0-39.46l71.92-71.92c9.14-9.14,23.96-9.14,33.11,0
		l6.36,6.36c9.14,9.14,9.14,23.96,0,33.11l-75.1,75.1C303.47,821.37,288.65,821.37,279.51,812.23"/>
	<path class="st0" d="M766.69,542.37L766.69,542.37c0-15.41,12.49-27.9,27.9-27.9h97.22c15.41,0,27.9,12.49,27.9,27.9
		c0,15.41-12.49,27.9-27.9,27.9h-97.22C779.18,570.27,766.69,557.78,766.69,542.37"/>
	<path class="st0" d="M165.87,542.56L165.87,542.56c0-15.41,12.49-27.9,27.9-27.9h97.22c15.41,0,27.9,12.49,27.9,27.9
		c0,15.41-12.49,27.9-27.9,27.9h-97.22C178.36,570.46,165.87,557.97,165.87,542.56"/>
	<path class="st0" d="M698,703.9l6.36-6.36c9.14-9.14,23.96-9.14,33.11,0l75.1,75.1c9.14,9.14,9.14,23.96,0,33.11l-6.36,6.36
		c-9.14,9.14-23.96,9.14-33.11,0L698,737C688.86,727.86,688.86,713.04,698,703.9"/>
	<path class="st0" d="M273.02,279.18l6.36-6.36c9.14-9.14,23.96-9.14,33.11,0l75.1,75.1c9.14,9.14,9.14,23.96,0,33.11l-6.36,6.36
		c-9.14,9.14-23.96,9.14-33.11,0l-75.1-75.1C263.88,303.15,263.88,288.33,273.02,279.18"/>
	<path class="st4" d="M568.51,390.27c-1.57,26.45-10.99,50.1-26.63,71.19c-22.35,30.15-52.07,49.11-88.93,56.52
		c-7.83,1.57-15.81,2.62-23.8,2.6c-86.36-0.51-172.69-0.59-259.01-1.84c-32.48-0.45-59.06-15.03-79.66-40.28
		c-11.68-14.34-18.94-30.67-22.14-48.8c-0.44-2.54-0.39-5.18-0.58-7.75c-2.16-4.39-0.58-9.06-0.94-13.58
		c2.13-2.76,0.64-5.98,1.08-8.97c0.05-1.48,0.09-2.96,0.14-4.44c0.86-7.71,3.37-15.02,5.74-22.37c1.14-2.63,2.29-5.24,3.44-7.87
		c0.39-0.74,0.78-1.48,1.13-2.25c1.89-2.95,3.74-5.93,5.59-8.92c2.57-5.09,6.54-9.15,10.2-13.4c14.02-15.98,31.21-26.82,51.78-32.23
		c5.2-3.17,11.64-1.51,16.87-4.37c2.32-3.54,0.68-7.5,1.17-11.24c0.1-15.5,4.84-29.98,10.74-44.01c4.08-9.74,9.07-19.15,15.57-27.63
		c6.4-9.19,13.95-17.39,22.56-24.55c7.2-6.55,14.98-12.27,23.68-16.66c7-4.51,14.46-7.94,22.51-9.97
		c6.36-3.27,13.21-4.64,20.22-5.48c13.27-3.87,26.84-3.99,40.39-2.39c3.31,0.41,7.08-0.94,10.14,1.58c6.69,0.01,13.02,1.7,19.03,4.6
		c8.02,1.67,15.65,4.29,22.39,9.13c9.7,3.97,18.19,9.73,25.72,17c8.77,6.18,15.6,14.3,22.27,22.58c3.57,4.99,6.96,10.09,10.72,14.87
		c2.84,3.62,7.42,2.8,11.29,3.14c17.22,1.56,33.32,6.87,48.86,14.12c0.77,0.36,1.3,1.31,1.89,1.95
		c20.01,10.52,37.44,24.02,50.15,43.02c3.24,4.71,7.42,8.86,8.92,14.62c2.48,3.46,5.53,6.62,5.57,11.28
		c0.38,0.74,0.73,1.48,1.12,2.22c1.45,3.75,2.94,7.49,4.43,11.24c3.79,8.62,5.07,17.79,6.45,26.99c1.47,8.29,1.09,16.67,1.01,25.06
		C569.56,386.75,570.11,388.76,568.51,390.27"/>
	<path class="st4" d="M1012.27,736.2c-1.41,26.46-10.68,50.18-26.17,71.35c-22.17,30.3-51.77,49.43-88.58,57.08
		c-7.82,1.61-15.78,2.71-23.78,2.75c-86.36,0.03-172.69,0.49-259.01-0.22c-32.49-0.24-59.16-14.66-79.91-39.78
		c-11.77-14.27-19.14-30.54-22.45-48.66c-0.46-2.54-0.42-5.18-0.63-7.75c-2.19-4.37-0.64-9.05-1.02-13.56
		c2.11-2.79,0.59-5.99,1.02-8.99c0.03-1.48,0.06-2.96,0.11-4.43c0.81-7.72,3.27-15.05,5.6-22.41c1.13-2.64,2.25-5.25,3.38-7.89
		c0.39-0.75,0.78-1.48,1.13-2.26c1.86-2.96,3.7-5.95,5.54-8.95c2.54-5.11,6.48-9.19,10.11-13.46
		c13.92-16.07,31.04-27.03,51.59-32.55c5.17-3.21,11.62-1.59,16.84-4.47c2.29-3.57,0.63-7.51,1.09-11.24
		c0-15.51,4.65-30.02,10.47-44.08c4.01-9.76,8.95-19.2,15.39-27.73c6.35-9.22,13.85-17.47,22.41-24.7
		c7.15-6.58,14.9-12.36,23.57-16.8c6.97-4.55,14.41-8.03,22.45-10.11c6.34-3.32,13.17-4.73,20.18-5.6
		c13.25-3.95,26.82-4.16,40.38-2.64c3.32,0.38,7.08-0.99,10.15,1.51c6.7-0.03,13.04,1.62,19.07,4.47c8.03,1.62,15.68,4.2,22.45,8.99
		c9.72,3.91,18.25,9.61,25.83,16.84c8.8,6.13,15.68,14.19,22.41,22.44c3.6,4.97,7.01,10.04,10.82,14.8
		c2.85,3.59,7.43,2.75,11.31,3.06c17.23,1.44,33.37,6.66,48.94,13.81c0.78,0.35,1.3,1.31,1.9,1.94
		c20.09,10.39,37.6,23.78,50.42,42.7c3.28,4.69,7.47,8.81,9.02,14.55c2.5,3.45,5.57,6.59,5.63,11.24c0.39,0.74,0.75,1.48,1.13,2.22
		c1.48,3.74,3,7.47,4.52,11.2c3.84,8.6,5.18,17.76,6.62,26.95c1.52,8.28,1.2,16.67,1.16,25.06
		C1013.29,732.68,1013.86,734.69,1012.27,736.2"/>
</g>
</svg>
